<?xml version="1.0" encoding="UTF-8" standalone="no"?>
<!-- Created with Inkscape (http://www.inkscape.org/) -->

<svg
   xmlns:dc="http://purl.org/dc/elements/1.1/"
   xmlns:cc="http://creativecommons.org/ns#"
   xmlns:rdf="http://www.w3.org/1999/02/22-rdf-syntax-ns#"
   xmlns:svg="http://www.w3.org/2000/svg"
   xmlns="http://www.w3.org/2000/svg"
   xmlns:sodipodi="http://sodipodi.sourceforge.net/DTD/sodipodi-0.dtd"
   xmlns:inkscape="http://www.inkscape.org/namespaces/inkscape"
   width="108.58694mm"
   height="129.1424mm"
   viewBox="0 0 108.58694 129.1424"
   version="1.1"
   id="svg8365"
   inkscape:version="0.92.3 (2405546, 2018-03-11)"
   sodipodi:docname="Certificate_V2.svg">
  <defs
     id="defs8359">
    <clipPath
       clipPathUnits="userSpaceOnUse"
       id="clipPath10535-1-5">
      <ellipse
         style="opacity:1;fill:none;fill-opacity:1;fill-rule:nonzero;stroke:#bd0000;stroke-width:0.05512322;stroke-linecap:butt;stroke-linejoin:round;stroke-miterlimit:4;stroke-dasharray:none;stroke-dashoffset:0;stroke-opacity:1;paint-order:fill markers stroke"
         id="circle10537-1-5"
         cx="-959.00714"
         cy="-284.78043"
         rx="1.3828394"
         ry="3.9996486"
         transform="matrix(-0.98863522,-0.15033433,-0.37366585,-0.92756339,0,0)" />
    </clipPath>
    <clipPath
       clipPathUnits="userSpaceOnUse"
       id="clipPath10531-3-9">
      <ellipse
         style="opacity:1;fill:none;fill-opacity:1;fill-rule:nonzero;stroke:#bd0000;stroke-width:0.058906;stroke-linecap:butt;stroke-linejoin:round;stroke-miterlimit:4;stroke-dasharray:none;stroke-dashoffset:0;stroke-opacity:1;paint-order:fill markers stroke"
         id="circle10533-6-9"
         cx="1126.4066"
         cy="-10.177329"
         rx="1.6145879"
         ry="3.9118459"
         transform="matrix(0.93442096,0.35617057,-0.34548069,-0.93842586,0,0)" />
    </clipPath>
    <clipPath
       clipPathUnits="userSpaceOnUse"
       id="clipPath10527-6-3">
      <ellipse
         style="opacity:1;fill:none;fill-opacity:1;fill-rule:nonzero;stroke:#bd0000;stroke-width:0.05512322;stroke-linecap:butt;stroke-linejoin:round;stroke-miterlimit:4;stroke-dasharray:none;stroke-dashoffset:0;stroke-opacity:1;paint-order:fill markers stroke"
         id="circle10529-0-2"
         cx="-959.23108"
         cy="-289.65207"
         rx="1.3828394"
         ry="3.9996483"
         transform="matrix(-0.98863522,-0.15033432,-0.37366586,-0.92756338,0,0)" />
    </clipPath>
    <clipPath
       clipPathUnits="userSpaceOnUse"
       id="clipPath10523-7-9">
      <ellipse
         style="opacity:1;fill:none;fill-opacity:1;fill-rule:nonzero;stroke:#bd0000;stroke-width:0.05512322;stroke-linecap:butt;stroke-linejoin:round;stroke-miterlimit:4;stroke-dasharray:none;stroke-dashoffset:0;stroke-opacity:1;paint-order:fill markers stroke"
         id="circle10525-9-3"
         cx="-957.19257"
         cy="-291.60437"
         rx="1.3828394"
         ry="3.9996483"
         transform="matrix(-0.98863522,-0.15033432,-0.37366586,-0.92756338,0,0)" />
    </clipPath>
  </defs>
  <sodipodi:namedview
     id="base"
     pagecolor="#ffffff"
     bordercolor="#666666"
     borderopacity="1.0"
     inkscape:pageopacity="0.0"
     inkscape:pageshadow="2"
     inkscape:zoom="1.4"
     inkscape:cx="187.47877"
     inkscape:cy="245.30534"
     inkscape:document-units="mm"
     inkscape:current-layer="layer1"
     showgrid="false"
     inkscape:window-width="1920"
     inkscape:window-height="1001"
     inkscape:window-x="-9"
     inkscape:window-y="-9"
     inkscape:window-maximized="1" />
  <metadata
     id="metadata8362">
    <rdf:RDF>
      <cc:Work
         rdf:about="">
        <dc:format>image/svg+xml</dc:format>
        <dc:type
           rdf:resource="http://purl.org/dc/dcmitype/StillImage" />
        <dc:title></dc:title>
      </cc:Work>
    </rdf:RDF>
  </metadata>
  <g
     inkscape:label="Layer 1"
     inkscape:groupmode="layer"
     id="layer1"
     transform="translate(-52.795412,-80.482377)">
    <path
       style="opacity:1;fill:#2f2e91;fill-opacity:1;fill-rule:nonzero;stroke:none;stroke-width:0.82102096;stroke-linecap:square;stroke-linejoin:round;stroke-miterlimit:4;stroke-dasharray:none;stroke-dashoffset:0;stroke-opacity:1;paint-order:fill markers stroke"
       mask="none"
       clip-path="none"
       d="m 81.381397,158.14522 h 25.957983 v 51.47955 l -13.357041,-9.45128 -12.600942,9.45128 z"
       id="rect12285-7-8"
       inkscape:connector-curvature="0"
       sodipodi:nodetypes="cccccc"
       inkscape:export-filename="C:\Users\Taylor\Desktop\Certificate_V2_Certified2.png"
       inkscape:export-xdpi="400"
       inkscape:export-ydpi="400" />
    <rect
       style="opacity:1;fill:#0069c1;fill-opacity:1;fill-rule:nonzero;stroke:#0069c1;stroke-width:1.31018329;stroke-linecap:round;stroke-linejoin:round;stroke-miterlimit:4;stroke-dasharray:none;stroke-dashoffset:0;stroke-opacity:1;paint-order:normal"
       id="rect12130-3-0-1"
       width="9.7860498"
       height="84.143951"
       x="53.512661"
       y="86.682129"
       inkscape:export-filename="C:\Users\Taylor\Desktop\Certificate_V2_Certified2.png"
       inkscape:export-xdpi="400"
       inkscape:export-ydpi="400" />
    <rect
       style="opacity:1;fill:#0069c1;fill-opacity:1;fill-rule:nonzero;stroke:#0069c1;stroke-width:1.14827573;stroke-linecap:round;stroke-linejoin:round;stroke-miterlimit:4;stroke-dasharray:none;stroke-dashoffset:0;stroke-opacity:1;paint-order:normal"
       id="rect12130-59-7"
       width="9.7992325"
       height="64.545563"
       x="147.95874"
       y="111.66963"
       inkscape:export-filename="C:\Users\Taylor\Desktop\Certificate_V2_Certified2.png"
       inkscape:export-xdpi="400"
       inkscape:export-ydpi="400" />
    <path
       style="fill:#0069c1;fill-opacity:1;stroke:none;stroke-width:0.30911314px;stroke-linecap:butt;stroke-linejoin:miter;stroke-opacity:1"
       d="m 156.72544,179.20785 c 1.31547,-1.38553 1.7479,-0.74673 1.69199,-8.60906 -0.0135,-1.90181 -3.96083,0.40354 -10.87674,-0.65156 -6.45594,-0.2273 -31.01925,-0.0748 -31.01925,-0.0748 l 0.0923,10.68593 c 0,0 13.61419,0.0173 19.93063,0.0173 6.31642,0 12.14265,-0.0615 15.05546,-0.0917 2.85649,-0.0394 3.81011,0.11038 5.12561,-1.27467 z"
       id="path12170-4-5"
       inkscape:connector-curvature="0"
       sodipodi:nodetypes="zscccscz"
       inkscape:export-filename="C:\Users\Taylor\Desktop\Certificate_V2_Certified2.png"
       inkscape:export-xdpi="400"
       inkscape:export-ydpi="400" />
    <path
       style="fill:#0069c1;fill-opacity:1;stroke:none;stroke-width:0.2144953px;stroke-linecap:butt;stroke-linejoin:miter;stroke-opacity:1"
       d="m 53.657006,179.27371 c -0.633396,-1.38552 -0.841612,-0.74672 -0.814699,-8.60906 0.0071,-1.9018 1.907172,0.40355 5.237211,-0.65155 3.108574,-0.2273 14.93591,-0.0748 14.93591,-0.0748 l -0.04452,10.68592 c 0,0 -6.555309,0.0173 -9.596694,0.0173 -3.041393,0 -5.860304,-0.0575 -7.249278,-0.0917 -1.388975,-0.0339 -1.972571,-0.57923 -2.468007,-1.27467 -0.495419,-0.69568 -5.5e-5,0 -5.5e-5,0 z"
       id="path12170-3-1-0"
       inkscape:connector-curvature="0"
       sodipodi:nodetypes="cscccsszc"
       inkscape:export-filename="C:\Users\Taylor\Desktop\Certificate_V2_Certified2.png"
       inkscape:export-xdpi="400"
       inkscape:export-ydpi="400" />
    <path
       style="fill:#0069c1;fill-opacity:1;stroke:none;stroke-width:0.41474789px;stroke-linecap:butt;stroke-linejoin:miter;stroke-opacity:1"
       d="m 55.84994,82.117178 c -2.368177,1.385525 -3.146649,0.746731 -3.046017,8.609062 0.02442,1.901807 7.130524,-0.40354 19.58089,0.651557 11.622312,0.227297 55.842477,0.07484 55.842477,0.07484 L 128.0611,80.76671 c 0,0 -24.509,-0.01733 -35.880175,-0.01733 -11.371187,0 -21.859839,0.06145 -27.103668,0.0917 -5.142368,0.0394 -6.859146,-0.110378 -9.227356,1.274673 z"
       id="path12170-7-77-2"
       inkscape:connector-curvature="0"
       sodipodi:nodetypes="zscccscz"
       inkscape:export-filename="C:\Users\Taylor\Desktop\Certificate_V2_Certified2.png"
       inkscape:export-xdpi="400"
       inkscape:export-ydpi="400" />
    <path
       style="opacity:1;fill:#2f2e91;fill-opacity:1;fill-rule:nonzero;stroke:none;stroke-width:0.59047663;stroke-linecap:square;stroke-linejoin:round;stroke-miterlimit:4;stroke-dasharray:none;stroke-dashoffset:0;stroke-opacity:1;paint-order:fill markers stroke"
       inkscape:transform-center-y="5.2933741"
       d="M 94.443416,174.45708 76.106582,142.69686 h 36.673658 z"
       id="path12224-82-1"
       inkscape:connector-curvature="0"
       inkscape:transform-center-x="-4.4911336e-006"
       inkscape:export-filename="C:\Users\Taylor\Desktop\Certificate_V2_Certified2.png"
       inkscape:export-xdpi="400"
       inkscape:export-ydpi="400" />
    <path
       style="opacity:1;fill:#0069c1;fill-opacity:1;fill-rule:nonzero;stroke:none;stroke-width:0.59047663;stroke-linecap:square;stroke-linejoin:round;stroke-miterlimit:4;stroke-dasharray:none;stroke-dashoffset:0;stroke-opacity:1;paint-order:fill markers stroke"
       inkscape:transform-center-x="5.2933846"
       d="M 72.598337,156.51294 104.35863,138.17607 V 174.8499 Z"
       id="path12224-9-0-7"
       inkscape:connector-curvature="0"
       inkscape:export-filename="C:\Users\Taylor\Desktop\Certificate_V2_Certified2.png"
       inkscape:export-xdpi="400"
       inkscape:export-ydpi="400"
       inkscape:transform-center-y="1.1775079e-005" />
    <path
       style="opacity:1;fill:#2f2e91;fill-opacity:1;fill-rule:nonzero;stroke:none;stroke-width:0.59047663;stroke-linecap:square;stroke-linejoin:round;stroke-miterlimit:4;stroke-dasharray:none;stroke-dashoffset:0;stroke-opacity:1;paint-order:fill markers stroke"
       inkscape:transform-center-x="-8.3634281e-006"
       inkscape:transform-center-y="-5.2933771"
       d="m 94.443416,138.17882 18.336824,31.76014 H 76.106582 Z"
       id="path12224-9-6-1-3"
       inkscape:connector-curvature="0"
       inkscape:export-filename="C:\Users\Taylor\Desktop\Certificate_V2_Certified2.png"
       inkscape:export-xdpi="400"
       inkscape:export-ydpi="400" />
    <path
       style="opacity:1;fill:#0069c1;fill-opacity:1;fill-rule:nonzero;stroke:none;stroke-width:0.59047663;stroke-linecap:square;stroke-linejoin:round;stroke-miterlimit:4;stroke-dasharray:none;stroke-dashoffset:0;stroke-opacity:1;paint-order:fill markers stroke"
       inkscape:transform-center-x="-5.2934016"
       inkscape:transform-center-y="1.3884988e-005"
       d="m 116.67856,156.90309 -31.76031,18.33672 v -36.6736 z"
       id="path12224-9-6-7-8-0"
       inkscape:connector-curvature="0"
       inkscape:export-filename="C:\Users\Taylor\Desktop\Certificate_V2_Certified2.png"
       inkscape:export-xdpi="400"
       inkscape:export-ydpi="400" />
    <rect
       style="opacity:1;fill:#0069c1;fill-opacity:1;fill-rule:nonzero;stroke:none;stroke-width:0.80533761;stroke-linecap:square;stroke-linejoin:round;stroke-miterlimit:4;stroke-dasharray:none;stroke-dashoffset:0;stroke-opacity:1;paint-order:fill markers stroke"
       id="rect12305-4-6"
       width="53.483994"
       height="3.4420695"
       x="69.940125"
       y="99.844383"
       inkscape:export-filename="C:\Users\Taylor\Desktop\Certificate_V2_Certified2.png"
       inkscape:export-xdpi="400"
       inkscape:export-ydpi="400" />
    <rect
       style="opacity:1;fill:#0069c1;fill-opacity:1;fill-rule:nonzero;stroke:none;stroke-width:0.90898621;stroke-linecap:square;stroke-linejoin:round;stroke-miterlimit:4;stroke-dasharray:none;stroke-dashoffset:0;stroke-opacity:1;paint-order:fill markers stroke"
       id="rect12305-5-0-3"
       width="69.570374"
       height="3.3711481"
       x="69.991928"
       y="110.13882"
       inkscape:export-filename="C:\Users\Taylor\Desktop\Certificate_V2_Certified2.png"
       inkscape:export-xdpi="400"
       inkscape:export-ydpi="400" />
    <rect
       style="opacity:1;fill:#0069c1;fill-opacity:1;fill-rule:nonzero;stroke:none;stroke-width:0.90898621;stroke-linecap:square;stroke-linejoin:round;stroke-miterlimit:4;stroke-dasharray:none;stroke-dashoffset:0;stroke-opacity:1;paint-order:fill markers stroke"
       id="rect12305-5-6-6-7"
       width="69.570374"
       height="3.3711481"
       x="69.991928"
       y="120.29941"
       inkscape:export-filename="C:\Users\Taylor\Desktop\Certificate_V2_Certified2.png"
       inkscape:export-xdpi="400"
       inkscape:export-ydpi="400" />
    <rect
       style="opacity:1;fill:#0069c1;fill-opacity:1;fill-rule:nonzero;stroke:none;stroke-width:0.90898621;stroke-linecap:square;stroke-linejoin:round;stroke-miterlimit:4;stroke-dasharray:none;stroke-dashoffset:0;stroke-opacity:1;paint-order:fill markers stroke"
       id="rect12305-5-6-5-0-8"
       width="69.570374"
       height="3.3711481"
       x="69.991928"
       y="129.84271"
       inkscape:export-filename="C:\Users\Taylor\Desktop\Certificate_V2_Certified2.png"
       inkscape:export-xdpi="400"
       inkscape:export-ydpi="400" />
    <path
       style="opacity:1;fill:#2f2e91;fill-opacity:1;fill-rule:nonzero;stroke:none;stroke-width:0.53908783;stroke-linecap:square;stroke-linejoin:round;stroke-miterlimit:4;stroke-dasharray:none;stroke-dashoffset:0;stroke-opacity:1;paint-order:fill markers stroke"
       mask="none"
       clip-path="none"
       inkscape:transform-center-x="-3.0187197"
       inkscape:transform-center-y="-3.0337929"
       d="m 131.58186,80.482377 26.1761,26.241363 c 0,0 -6.69171,0.19334 -13.27879,0.11369 -6.50301,-0.0798 -9.64268,0.76697 -11.58881,-1.62764 -1.96254,-2.41477 -1.25887,-5.09388 -1.31242,-9.722377 -0.0535,-4.628261 0.004,-15.004721 0.004,-15.004721 z"
       id="path12287-3-3-9"
       inkscape:connector-curvature="0"
       sodipodi:nodetypes="ccsssc"
       inkscape:export-filename="C:\Users\Taylor\Desktop\Certificate_V2_Certified2.png"
       inkscape:export-xdpi="400"
       inkscape:export-ydpi="400" />
    <ellipse
       style="opacity:1;fill:#ffffff;fill-opacity:1;fill-rule:nonzero;stroke:#bd0000;stroke-width:0.63501209;stroke-linecap:butt;stroke-linejoin:round;stroke-miterlimit:4;stroke-dasharray:none;stroke-dashoffset:0;stroke-opacity:1;paint-order:fill markers stroke"
       id="path8825-6-4-1"
       cx="141.30244"
       cy="163.76613"
       rx="17.330967"
       ry="17.278852"
       inkscape:export-filename="C:\Users\Taylor\Desktop\Certificate_V2_Certified2.png"
       inkscape:export-xdpi="400"
       inkscape:export-ydpi="400" />
    <ellipse
       style="opacity:1;fill:none;fill-opacity:1;fill-rule:nonzero;stroke:#bd0000;stroke-width:0.25053826;stroke-linecap:butt;stroke-linejoin:round;stroke-miterlimit:4;stroke-dasharray:none;stroke-dashoffset:0;stroke-opacity:1;paint-order:fill markers stroke"
       id="path8825-7-8"
       cx="141.31441"
       cy="163.77278"
       rx="16.514341"
       ry="16.523281"
       inkscape:export-filename="C:\Users\Taylor\Desktop\Certificate_V2_Certified2.png"
       inkscape:export-xdpi="400"
       inkscape:export-ydpi="400" />
    <ellipse
       style="opacity:1;fill:none;fill-opacity:1;fill-rule:nonzero;stroke:#bd0000;stroke-width:0.63521785;stroke-linecap:butt;stroke-linejoin:round;stroke-miterlimit:4;stroke-dasharray:none;stroke-dashoffset:0;stroke-opacity:1;paint-order:fill markers stroke"
       id="path8825-6-27"
       cx="141.30244"
       cy="163.66188"
       rx="11.473301"
       ry="11.4733"
       inkscape:export-filename="C:\Users\Taylor\Desktop\Certificate_V2_Certified2.png"
       inkscape:export-xdpi="400"
       inkscape:export-ydpi="400" />
    <g
       aria-label="CERTIFIED"
       style="font-style:normal;font-weight:normal;font-size:6.01802778px;line-height:1.25;font-family:sans-serif;letter-spacing:0px;word-spacing:0px;fill:#c30102;fill-opacity:1;stroke:none;stroke-width:0.15045069"
       id="text10200-9-5"
       transform="matrix(-0.78785618,0,0,-0.78785618,127.4104,1154.4742)"
       inkscape:export-filename="C:\Users\Taylor\Desktop\Certificate_V2_Certified2.png"
       inkscape:export-xdpi="400"
       inkscape:export-ydpi="400">
      <path
         d="m -33.494394,1254.9458 q 0.07513,0.1595 0.14061,0.2899 0.06539,0.1275 0.139021,0.337 0.06095,0.1776 0.105207,0.388 0.04711,0.2073 0.05436,0.4599 0.01366,0.4759 -0.107304,0.8703 -0.123985,0.3916 -0.400639,0.6877 -0.270947,0.2899 -0.695236,0.4609 -0.427228,0.171 -0.99706,0.1873 -0.540459,0.016 -0.97075,-0.125 -0.43029,-0.1405 -0.732281,-0.4199 -0.292926,-0.2709 -0.454026,-0.6602 -0.161184,-0.3922 -0.175012,-0.8739 -0.01012,-0.3525 0.06503,-0.7045 0.07506,-0.3549 0.277174,-0.7899 l 0.690261,-0.02 0.0013,0.044 q -0.292169,0.3699 -0.420019,0.7293 -0.127849,0.3594 -0.116214,0.7647 0.0095,0.3319 0.125881,0.5961 0.11333,0.2613 0.345487,0.4634 0.226114,0.1963 0.56719,0.3012 0.338054,0.102 0.778646,0.089 0.461153,-0.013 0.789524,-0.1462 0.328287,-0.1358 0.531185,-0.3386 0.211456,-0.2118 0.309357,-0.488 0.09488,-0.2791 0.08611,-0.5846 -0.01206,-0.42 -0.166524,-0.783 -0.154466,-0.3631 -0.45151,-0.675 l -0.0012,-0.041 z"
         style="stroke-width:0.15045069"
         id="path10206-4-0"
         inkscape:connector-curvature="0" />
      <path
         d="m -32.303369,1251.3092 -0.707183,2.7945 -4.241705,-1.0734 0.707183,-2.7945 0.50137,0.1268 -0.564449,2.2306 1.162267,0.2941 0.564449,-2.2305 0.50137,0.1268 -0.564449,2.2306 1.575328,0.3986 0.564449,-2.2305 z"
         style="stroke-width:0.15045069"
         id="path10208-4-5"
         inkscape:connector-curvature="0" />
      <path
         d="m -30.145906,1247.2957 -0.37276,0.6568 -2.235216,0.414 -0.404669,0.713 1.512902,0.8587 -0.287185,0.506 -3.805256,-2.1597 0.604829,-1.0657 q 0.195808,-0.345 0.372347,-0.5489 0.173983,-0.2053 0.393415,-0.324 0.247819,-0.1331 0.512424,-0.1349 0.263499,-0.01 0.567613,0.1667 0.411448,0.2335 0.572521,0.5986 0.158518,0.3637 0.09311,0.8063 z m -3.406017,-0.3687 q -0.163557,-0.093 -0.32214,-0.1051 -0.159688,-0.016 -0.322,0.067 -0.136481,0.068 -0.250167,0.2026 -0.116243,0.1334 -0.232277,0.3378 l -0.33795,0.5955 1.436235,0.8151 0.290086,-0.5111 q 0.13634,-0.2402 0.196981,-0.4423 0.05809,-0.2036 0.01416,-0.3941 -0.04207,-0.1759 -0.149607,-0.3079 -0.108647,-0.136 -0.323316,-0.2578 z"
         style="stroke-width:0.15045069"
         id="path10210-7-2"
         inkscape:connector-curvature="0" />
      <path
         d="m -30.350014,1242.1134 -1.099541,1.1112 2.742578,2.7137 -0.409228,0.4136 -2.742578,-2.7137 -1.099541,1.1112 -0.367627,-0.3637 2.60831,-2.6361 z"
         style="stroke-width:0.15045069"
         id="path10212-5-8"
         inkscape:connector-curvature="0" />
      <path
         d="m -25.76759,1243.7038 -1.44933,0.9407 -0.243164,-0.3747 0.480645,-0.3119 -1.895724,-2.9209 -0.480645,0.312 -0.243165,-0.3747 1.44933,-0.9406 0.243164,0.3746 -0.480645,0.312 1.895724,2.9208 0.480646,-0.3119 z"
         style="stroke-width:0.15045069"
         id="path10214-8-5"
         inkscape:connector-curvature="0" />
      <path
         d="m -23.671918,1238.6169 -2.064086,0.7972 0.444649,1.1513 1.773524,-0.685 0.186329,0.4824 -1.773524,0.685 0.759078,1.9654 -0.542748,0.2096 -1.576385,-4.0815 2.606835,-1.0069 z"
         style="stroke-width:0.15045069"
         id="path10216-6-3"
         inkscape:connector-curvature="0" />
      <path
         d="m -20.088184,1241.8859 -1.704706,0.2817 -0.07283,-0.4406 0.565336,-0.094 -0.567811,-3.4355 -0.565336,0.093 -0.07283,-0.4407 1.704706,-0.2818 0.07283,0.4407 -0.565336,0.093 0.56781,3.4355 0.565337,-0.093 z"
         style="stroke-width:0.15045069"
         id="path10218-6-0"
         inkscape:connector-curvature="0" />
      <path
         d="m -16.211373,1241.9336 -2.878541,-0.154 0.233771,-4.3692 2.878542,0.154 -0.02763,0.5165 -2.297552,-0.123 -0.06405,1.1972 2.297551,0.1229 -0.02763,0.5165 -2.297551,-0.1229 -0.08682,1.6226 2.297552,0.1229 z"
         style="stroke-width:0.15045069"
         id="path10220-4-6"
         inkscape:connector-curvature="0" />
      <path
         d="m -11.062432,1241.2935 q -0.201775,0.5614 -0.61189,0.9292 -0.407349,0.3688 -0.904295,0.4743 -0.344678,0.073 -0.720934,0.025 -0.373491,-0.047 -0.940373,-0.2505 l -1.039743,-0.3738 1.480017,-4.1175 1.028683,0.3698 q 0.60283,0.2167 0.924979,0.4324 0.325907,0.2139 0.517349,0.4545 0.325895,0.4138 0.403896,0.9352 0.078,0.5214 -0.137689,1.1214 z m -0.56943,-0.214 q 0.173944,-0.4839 0.124538,-0.8764 -0.04941,-0.3925 -0.31542,-0.7035 -0.193646,-0.2258 -0.448523,-0.3767 -0.253883,-0.1537 -0.635491,-0.2909 l -0.514341,-0.1849 -1.142069,3.1773 0.514341,0.1849 q 0.395435,0.1421 0.709427,0.1894 0.316758,0.048 0.619524,-0.021 0.377517,-0.086 0.644908,-0.3521 0.270155,-0.2652 0.443106,-0.7463 z"
         style="stroke-width:0.15045069"
         id="path10222-6-1"
         inkscape:connector-curvature="0" />
    </g>
    <g
       aria-label="CERTIFIED"
       style="font-style:normal;font-weight:normal;font-size:6.01802778px;line-height:1.25;font-family:sans-serif;letter-spacing:0px;word-spacing:0px;fill:#c30102;fill-opacity:1;stroke:none;stroke-width:0.15045069"
       id="text10200-3"
       transform="matrix(0.78785618,0,0,0.78785618,155.47653,-826.76125)"
       inkscape:export-filename="C:\Users\Taylor\Desktop\Certificate_V2_Certified2.png"
       inkscape:export-xdpi="400"
       inkscape:export-ydpi="400">
      <path
         d="m -33.494394,1254.9458 q 0.07513,0.1595 0.14061,0.2899 0.06539,0.1275 0.139021,0.337 0.06095,0.1776 0.105207,0.388 0.04711,0.2073 0.05436,0.4599 0.01366,0.4759 -0.107304,0.8703 -0.123985,0.3916 -0.400639,0.6877 -0.270947,0.2899 -0.695236,0.4609 -0.427228,0.171 -0.99706,0.1873 -0.540459,0.016 -0.97075,-0.125 -0.43029,-0.1405 -0.732281,-0.4199 -0.292926,-0.2709 -0.454026,-0.6602 -0.161184,-0.3922 -0.175012,-0.8739 -0.01012,-0.3525 0.06503,-0.7045 0.07506,-0.3549 0.277174,-0.7899 l 0.690261,-0.02 0.0013,0.044 q -0.292169,0.3699 -0.420019,0.7293 -0.127849,0.3594 -0.116214,0.7647 0.0095,0.3319 0.125881,0.5961 0.11333,0.2613 0.345487,0.4634 0.226114,0.1963 0.56719,0.3012 0.338054,0.102 0.778646,0.089 0.461153,-0.013 0.789524,-0.1462 0.328287,-0.1358 0.531185,-0.3386 0.211456,-0.2118 0.309357,-0.488 0.09488,-0.2791 0.08611,-0.5846 -0.01206,-0.42 -0.166524,-0.783 -0.154466,-0.3631 -0.45151,-0.675 l -0.0012,-0.041 z"
         style="stroke-width:0.15045069"
         id="path10206-6"
         inkscape:connector-curvature="0" />
      <path
         d="m -32.303369,1251.3092 -0.707183,2.7945 -4.241705,-1.0734 0.707183,-2.7945 0.50137,0.1268 -0.564449,2.2306 1.162267,0.2941 0.564449,-2.2305 0.50137,0.1268 -0.564449,2.2306 1.575328,0.3986 0.564449,-2.2305 z"
         style="stroke-width:0.15045069"
         id="path10208-45"
         inkscape:connector-curvature="0" />
      <path
         d="m -30.145906,1247.2957 -0.37276,0.6568 -2.235216,0.414 -0.404669,0.713 1.512902,0.8587 -0.287185,0.506 -3.805256,-2.1597 0.604829,-1.0657 q 0.195808,-0.345 0.372347,-0.5489 0.173983,-0.2053 0.393415,-0.324 0.247819,-0.1331 0.512424,-0.1349 0.263499,-0.01 0.567613,0.1667 0.411448,0.2335 0.572521,0.5986 0.158518,0.3637 0.09311,0.8063 z m -3.406017,-0.3687 q -0.163557,-0.093 -0.32214,-0.1051 -0.159688,-0.016 -0.322,0.067 -0.136481,0.068 -0.250167,0.2026 -0.116243,0.1334 -0.232277,0.3378 l -0.33795,0.5955 1.436235,0.8151 0.290086,-0.5111 q 0.13634,-0.2402 0.196981,-0.4423 0.05809,-0.2036 0.01416,-0.3941 -0.04207,-0.1759 -0.149607,-0.3079 -0.108647,-0.136 -0.323316,-0.2578 z"
         style="stroke-width:0.15045069"
         id="path10210-1"
         inkscape:connector-curvature="0" />
      <path
         d="m -30.350014,1242.1134 -1.099541,1.1112 2.742578,2.7137 -0.409228,0.4136 -2.742578,-2.7137 -1.099541,1.1112 -0.367627,-0.3637 2.60831,-2.6361 z"
         style="stroke-width:0.15045069"
         id="path10212-1"
         inkscape:connector-curvature="0" />
      <path
         d="m -25.76759,1243.7038 -1.44933,0.9407 -0.243164,-0.3747 0.480645,-0.3119 -1.895724,-2.9209 -0.480645,0.312 -0.243165,-0.3747 1.44933,-0.9406 0.243164,0.3746 -0.480645,0.312 1.895724,2.9208 0.480646,-0.3119 z"
         style="stroke-width:0.15045069"
         id="path10214-2"
         inkscape:connector-curvature="0" />
      <path
         d="m -23.671918,1238.6169 -2.064086,0.7972 0.444649,1.1513 1.773524,-0.685 0.186329,0.4824 -1.773524,0.685 0.759078,1.9654 -0.542748,0.2096 -1.576385,-4.0815 2.606835,-1.0069 z"
         style="stroke-width:0.15045069"
         id="path10216-2"
         inkscape:connector-curvature="0" />
      <path
         d="m -20.088184,1241.8859 -1.704706,0.2817 -0.07283,-0.4406 0.565336,-0.094 -0.567811,-3.4355 -0.565336,0.093 -0.07283,-0.4407 1.704706,-0.2818 0.07283,0.4407 -0.565336,0.093 0.56781,3.4355 0.565337,-0.093 z"
         style="stroke-width:0.15045069"
         id="path10218-1"
         inkscape:connector-curvature="0" />
      <path
         d="m -16.211373,1241.9336 -2.878541,-0.154 0.233771,-4.3692 2.878542,0.154 -0.02763,0.5165 -2.297552,-0.123 -0.06405,1.1972 2.297551,0.1229 -0.02763,0.5165 -2.297551,-0.1229 -0.08682,1.6226 2.297552,0.1229 z"
         style="stroke-width:0.15045069"
         id="path10220-7"
         inkscape:connector-curvature="0" />
      <path
         d="m -11.062432,1241.2935 q -0.201775,0.5614 -0.61189,0.9292 -0.407349,0.3688 -0.904295,0.4743 -0.344678,0.073 -0.720934,0.025 -0.373491,-0.047 -0.940373,-0.2505 l -1.039743,-0.3738 1.480017,-4.1175 1.028683,0.3698 q 0.60283,0.2167 0.924979,0.4324 0.325907,0.2139 0.517349,0.4545 0.325895,0.4138 0.403896,0.9352 0.078,0.5214 -0.137689,1.1214 z m -0.56943,-0.214 q 0.173944,-0.4839 0.124538,-0.8764 -0.04941,-0.3925 -0.31542,-0.7035 -0.193646,-0.2258 -0.448523,-0.3767 -0.253883,-0.1537 -0.635491,-0.2909 l -0.514341,-0.1849 -1.142069,3.1773 0.514341,0.1849 q 0.395435,0.1421 0.709427,0.1894 0.316758,0.048 0.619524,-0.021 0.377517,-0.086 0.644908,-0.3521 0.270155,-0.2652 0.443106,-0.7463 z"
         style="stroke-width:0.15045069"
         id="path10222-8"
         inkscape:connector-curvature="0" />
    </g>
    <g
       id="g10558-3-7"
       transform="matrix(1.0026294,0,0,0.98211059,114.8128,-1128.0061)"
       style="opacity:1"
       inkscape:export-filename="C:\Users\Taylor\Desktop\Certificate_V2_Certified2.png"
       inkscape:export-xdpi="400"
       inkscape:export-ydpi="400">
      <g
         clip-path="url(#clipPath10535-1-5)"
         style="stroke:none"
         transform="matrix(-10.558929,0.59167658,4.2536297,-3.8910095,9378.1751,2273.4901)"
         id="g6359-4-4-0-1-6-7">
        <path
           style="fill:#0bbade;fill-opacity:1;stroke:none;stroke-width:0.09013987;stroke-linecap:butt;stroke-linejoin:round;stroke-miterlimit:4;stroke-dasharray:none;stroke-opacity:1"
           d="m 1057.2851,410.83365 c 0,0 -0.3458,-0.4489 -0.9257,-0.65101 -0.6463,-0.18338 -1.7849,0.0119 -2.2519,-0.10471 -0.4669,-0.11603 -0.9292,-0.29791 -1.735,-0.44785 -0.606,-0.11288 -1.1613,0.28597 -1.1613,0.28597 0,0 0.5738,-0.0884 0.8554,-0.0446 0.6627,0.10286 1.0495,0.43783 1.8745,0.70856 0.825,0.27063 1.4797,-0.10168 2.1754,-0.0593 0.6474,0.0223 1.1685,0.31292 1.1685,0.31292 z"
           id="path4427-59-2-4-9-1-2-4-03-9"
           inkscape:connector-curvature="0"
           sodipodi:nodetypes="cccscazcc" />
        <path
           style="fill:#0babc5;fill-opacity:1;stroke:none;stroke-width:0.09013987;stroke-linecap:butt;stroke-linejoin:round;stroke-miterlimit:4;stroke-dasharray:none;stroke-opacity:1"
           d="m 1059.0775,412.46426 c 0,0 -0.9796,0.29331 -1.4264,0.19069 -0.4998,-0.0872 -0.8517,-0.49663 -1.3078,-0.67882 -0.3276,-0.13079 -0.6694,-0.2314 -1.0165,-0.29382 -0.1466,-0.0265 -0.4456,-0.034 -0.4456,-0.034 0.426,-0.12579 0.5722,-0.1625 0.8624,-0.13904 0.3188,0.0257 0.4738,0.03 0.9104,0.30285 0.5233,0.39349 0.8878,0.58689 1.3963,0.69527 0.3352,0.0715 1.0272,-0.0431 1.0272,-0.0431 z"
           id="path4423-19-9-6-0-9-6-2-8-7"
           inkscape:connector-curvature="0"
           sodipodi:nodetypes="ccaacacac" />
        <path
           style="fill:#007fc1;fill-opacity:1;stroke:none;stroke-width:0.09013987;stroke-linecap:butt;stroke-linejoin:round;stroke-miterlimit:4;stroke-dasharray:none;stroke-opacity:1"
           d="m 1058.8987,412.26729 c 0,0 -0.5298,0.16591 -1.039,-0.0777 -0.5093,-0.24357 -0.5906,-0.41616 -1.3851,-0.78522 -0.7135,-0.19596 -1.5153,0.20904 -2.7401,-0.0749 -0.5739,-0.18486 -0.6902,-0.39872 -1.5358,-1.00964 l -0.5144,-0.30802 c 0,0 0.1581,-0.0805 0.7862,0.16667 0.7163,0.28198 1.1838,0.70514 1.7639,0.68585 0.58,-0.0194 1.924,-0.21076 2.5297,0.0922 0.6056,0.30301 0.8623,0.7843 1.2499,0.99643 0.3875,0.21211 0.8847,0.31433 0.8847,0.31433 z"
           id="path4425-9-8-3-5-3-7-0-6-7"
           inkscape:connector-curvature="0"
           sodipodi:nodetypes="ccccccccczc" />
      </g>
      <g
         clip-path="url(#clipPath10531-3-9)"
         style="stroke:none"
         transform="matrix(10.448072,1.6367192,-3.8464489,-4.2939671,-9473.4034,1343.8899)"
         id="g6359-4-4-0-1-2-1-0">
        <path
           style="fill:#0bbade;fill-opacity:1;stroke:none;stroke-width:0.09013987;stroke-linecap:butt;stroke-linejoin:round;stroke-miterlimit:4;stroke-dasharray:none;stroke-opacity:1"
           d="m 1057.4959,410.82158 c 0,0 -0.3458,-0.4489 -0.9257,-0.65101 -0.6463,-0.18338 -1.7849,0.0119 -2.2519,-0.10471 -0.4669,-0.11603 -0.9292,-0.29791 -1.735,-0.44785 -0.606,-0.11288 -1.1613,0.28597 -1.1613,0.28597 0,0 0.5738,-0.0884 0.8554,-0.0446 0.6627,0.10286 1.0495,0.43783 1.8745,0.70856 0.825,0.27063 1.4797,-0.10168 2.1754,-0.0593 0.6474,0.0223 1.1685,0.31292 1.1685,0.31292 z"
           id="path4427-59-2-4-9-1-2-4-0-3-6"
           inkscape:connector-curvature="0"
           sodipodi:nodetypes="cccscazcc" />
        <path
           style="fill:#0babc5;fill-opacity:1;stroke:none;stroke-width:0.09013987;stroke-linecap:butt;stroke-linejoin:round;stroke-miterlimit:4;stroke-dasharray:none;stroke-opacity:1"
           d="m 1059.0775,412.46426 c 0,0 -0.9796,0.29331 -1.4264,0.19069 -0.4998,-0.0872 -0.8517,-0.49663 -1.3078,-0.67882 -0.3276,-0.13079 -0.6694,-0.2314 -1.0165,-0.29382 -0.1466,-0.0265 -0.4456,-0.034 -0.4456,-0.034 0.426,-0.12579 0.5722,-0.1625 0.8624,-0.13904 0.3188,0.0257 0.4738,0.03 0.9104,0.30285 0.5233,0.39349 0.8878,0.58689 1.3963,0.69527 0.3352,0.0715 1.0272,-0.0431 1.0272,-0.0431 z"
           id="path4423-19-9-6-0-9-6-2-7-8-6"
           inkscape:connector-curvature="0"
           sodipodi:nodetypes="ccaacacac" />
        <path
           style="fill:#007fc1;fill-opacity:1;stroke:none;stroke-width:0.09013987;stroke-linecap:butt;stroke-linejoin:round;stroke-miterlimit:4;stroke-dasharray:none;stroke-opacity:1"
           d="m 1058.8987,412.26729 c 0,0 -0.5298,0.16591 -1.039,-0.0777 -0.5093,-0.24357 -0.5906,-0.41616 -1.3851,-0.78522 -0.7135,-0.19596 -1.5153,0.20904 -2.7401,-0.0749 -0.5739,-0.18486 -0.6902,-0.39872 -1.5358,-1.00964 l -0.5144,-0.30802 c 0,0 0.1581,-0.0805 0.7862,0.16667 0.7163,0.28198 1.1838,0.70514 1.7639,0.68585 0.58,-0.0194 1.924,-0.21076 2.5297,0.0922 0.6056,0.30301 0.8623,0.7843 1.2499,0.99643 0.3875,0.21211 0.8847,0.31433 0.8847,0.31433 z"
           id="path4425-9-8-3-5-3-7-0-0-1-4"
           inkscape:connector-curvature="0"
           sodipodi:nodetypes="ccccccccczc" />
      </g>
      <g
         clip-path="url(#clipPath10527-6-3)"
         style="stroke:none"
         transform="matrix(-10.558929,0.59167657,4.2536298,-3.8910096,9380.3696,2289.9956)"
         id="g6359-4-4-0-1-9-2-5">
        <path
           style="fill:#0bbade;fill-opacity:1;stroke:none;stroke-width:0.09013987;stroke-linecap:butt;stroke-linejoin:round;stroke-miterlimit:4;stroke-dasharray:none;stroke-opacity:1"
           d="m 1057.2851,410.83365 c 0,0 -0.3458,-0.4489 -0.9257,-0.65101 -0.6463,-0.18338 -1.7849,0.0119 -2.2519,-0.10471 -0.4669,-0.11603 -0.9292,-0.29791 -1.735,-0.44785 -0.606,-0.11288 -1.1613,0.28597 -1.1613,0.28597 0,0 0.5738,-0.0884 0.8554,-0.0446 0.6627,0.10286 1.0495,0.43783 1.8745,0.70856 0.825,0.27063 1.4797,-0.10168 2.1754,-0.0593 0.6474,0.0223 1.1685,0.31292 1.1685,0.31292 z"
           id="path4427-59-2-4-9-1-2-4-6-7-3"
           inkscape:connector-curvature="0"
           sodipodi:nodetypes="cccscazcc" />
        <path
           style="fill:#0babc5;fill-opacity:1;stroke:none;stroke-width:0.09013987;stroke-linecap:butt;stroke-linejoin:round;stroke-miterlimit:4;stroke-dasharray:none;stroke-opacity:1"
           d="m 1059.0775,412.46426 c 0,0 -0.9796,0.29331 -1.4264,0.19069 -0.4998,-0.0872 -0.8517,-0.49663 -1.3078,-0.67882 -0.3276,-0.13079 -0.6694,-0.2314 -1.0165,-0.29382 -0.1466,-0.0265 -0.4456,-0.034 -0.4456,-0.034 0.426,-0.12579 0.5722,-0.1625 0.8624,-0.13904 0.3188,0.0257 0.4738,0.03 0.9104,0.30285 0.5233,0.39349 0.8878,0.58689 1.3963,0.69527 0.3352,0.0715 1.0272,-0.0431 1.0272,-0.0431 z"
           id="path4423-19-9-6-0-9-6-2-1-6-8"
           inkscape:connector-curvature="0"
           sodipodi:nodetypes="ccaacacac" />
        <path
           style="fill:#007fc1;fill-opacity:1;stroke:none;stroke-width:0.09013987;stroke-linecap:butt;stroke-linejoin:round;stroke-miterlimit:4;stroke-dasharray:none;stroke-opacity:1"
           d="m 1058.8987,412.26729 c 0,0 -0.5298,0.16591 -1.039,-0.0777 -0.5093,-0.24357 -0.5906,-0.41616 -1.3851,-0.78522 -0.7135,-0.19596 -1.5153,0.20904 -2.7401,-0.0749 -0.5739,-0.18486 -0.6902,-0.39872 -1.5358,-1.00964 l -0.5144,-0.30802 c 0,0 0.1581,-0.0805 0.7862,0.16667 0.7163,0.28198 1.1838,0.70514 1.7639,0.68585 0.58,-0.0194 1.924,-0.21076 2.5297,0.0922 0.6056,0.30301 0.8623,0.7843 1.2499,0.99643 0.3875,0.21211 0.8847,0.31433 0.8847,0.31433 z"
           id="path4425-9-8-3-5-3-7-0-3-8-3"
           inkscape:connector-curvature="0"
           sodipodi:nodetypes="ccccccccczc" />
      </g>
      <g
         clip-path="url(#clipPath10523-7-9)"
         style="stroke:none"
         transform="matrix(-10.558929,0.59167657,4.2536298,-3.8910096,9360.3936,2296.6101)"
         id="g6359-4-4-0-1-9-4-9-4">
        <path
           style="fill:#0bbade;fill-opacity:1;stroke:none;stroke-width:0.09013987;stroke-linecap:butt;stroke-linejoin:round;stroke-miterlimit:4;stroke-dasharray:none;stroke-opacity:1"
           d="m 1057.2851,410.83365 c 0,0 -0.3458,-0.4489 -0.9257,-0.65101 -0.6463,-0.18338 -1.7849,0.0119 -2.2519,-0.10471 -0.4669,-0.11603 -0.9292,-0.29791 -1.735,-0.44785 -0.606,-0.11288 -1.1613,0.28597 -1.1613,0.28597 0,0 0.5738,-0.0884 0.8554,-0.0446 0.6627,0.10286 1.0495,0.43783 1.8745,0.70856 0.825,0.27063 1.4797,-0.10168 2.1754,-0.0593 0.6474,0.0223 1.1685,0.31292 1.1685,0.31292 z"
           id="path4427-59-2-4-9-1-2-4-6-8-3-9"
           inkscape:connector-curvature="0"
           sodipodi:nodetypes="cccscazcc" />
        <path
           style="fill:#0babc5;fill-opacity:1;stroke:none;stroke-width:0.09013987;stroke-linecap:butt;stroke-linejoin:round;stroke-miterlimit:4;stroke-dasharray:none;stroke-opacity:1"
           d="m 1059.0775,412.46426 c 0,0 -0.9796,0.29331 -1.4264,0.19069 -0.4998,-0.0872 -0.8517,-0.49663 -1.3078,-0.67882 -0.3276,-0.13079 -0.6694,-0.2314 -1.0165,-0.29382 -0.1466,-0.0265 -0.4456,-0.034 -0.4456,-0.034 0.426,-0.12579 0.5722,-0.1625 0.8624,-0.13904 0.3188,0.0257 0.4738,0.03 0.9104,0.30285 0.5233,0.39349 0.8878,0.58689 1.3963,0.69527 0.3352,0.0715 1.0272,-0.0431 1.0272,-0.0431 z"
           id="path4423-19-9-6-0-9-6-2-1-3-7-9"
           inkscape:connector-curvature="0"
           sodipodi:nodetypes="ccaacacac" />
        <path
           style="fill:#007fc1;fill-opacity:1;stroke:none;stroke-width:0.09013987;stroke-linecap:butt;stroke-linejoin:round;stroke-miterlimit:4;stroke-dasharray:none;stroke-opacity:1"
           d="m 1058.5275,412.27884 c 0,0 -0.5298,0.16591 -1.039,-0.0777 -0.5093,-0.24357 -0.5906,-0.41616 -1.3851,-0.78522 -0.7135,-0.19596 -1.5153,0.20904 -2.7401,-0.0749 -0.5739,-0.18486 -0.6902,-0.39872 -1.5358,-1.00964 l -0.5144,-0.30802 c 0,0 0.1581,-0.0805 0.7862,0.16667 0.7163,0.28198 1.1838,0.70514 1.7639,0.68585 0.58,-0.0194 1.924,-0.21076 2.5297,0.0922 0.6056,0.30301 0.8623,0.7843 1.2499,0.99643 0.3875,0.21211 0.8847,0.31433 0.8847,0.31433 z"
           id="path4425-9-8-3-5-3-7-0-3-1-7-0"
           inkscape:connector-curvature="0"
           sodipodi:nodetypes="ccccccccczc" />
      </g>
    </g>
    <circle
       style="opacity:1;fill:#ffc90e;fill-opacity:1;fill-rule:nonzero;stroke:none;stroke-width:1.18830431;stroke-linecap:round;stroke-linejoin:bevel;stroke-miterlimit:4;stroke-dasharray:none;stroke-dashoffset:0;stroke-opacity:1;paint-order:fill markers stroke"
       id="path2425-8-2-7"
       cx="141.32307"
       cy="163.56467"
       r="9.3691263"
       inkscape:export-filename="C:\Users\Taylor\Desktop\Certificate_V2_Certified2.png"
       inkscape:export-xdpi="400"
       inkscape:export-ydpi="400" />
    <path
       style="fill:#ffffff;fill-opacity:1;stroke:#be0000;stroke-width:0.63501209;stroke-linecap:butt;stroke-linejoin:miter;stroke-miterlimit:4;stroke-dasharray:none;stroke-opacity:1"
       d="m 122.40955,171.79633 c -0.27834,-0.81717 0.80638,-1.44178 4.15514,-3.5214 2.48944,-1.54601 5.69514,-4.01255 9.34979,-6.24038 8.62369,-5.25688 18.78555,-13.06557 20.20196,-13.00978 1.04873,0.0418 2.10831,2.24744 2.95935,3.6213 0.85105,1.37386 2.68204,3.17474 1.71642,4.31421 -0.6734,0.79464 -6.83715,4.68657 -12.87244,8.63199 -6.03528,3.94552 -11.97949,7.91504 -12.70297,8.3865 -1.44697,0.94298 -2.53462,1.8372 -4.21151,2.85322 -1.63412,0.9901 -2.89571,2.28187 -3.82136,1.91962 -0.92565,-0.36226 -1.57766,-1.75756 -2.59148,-3.19721 -0.96393,-1.36882 -1.87356,-2.84999 -2.1829,-3.75807 z"
       id="path8928-2-9"
       inkscape:connector-curvature="0"
       sodipodi:nodetypes="sssszsssssss"
       inkscape:export-filename="C:\Users\Taylor\Desktop\Certificate_V2_Certified2.png"
       inkscape:export-xdpi="400"
       inkscape:export-ydpi="400" />
    <flowRoot
       xml:space="preserve"
       id="flowRoot8920-7"
       style="font-style:normal;font-variant:normal;font-weight:bold;font-stretch:normal;font-size:39.99943161px;line-height:1.25;font-family:sans-serif;-inkscape-font-specification:'sans-serif, Bold';font-variant-ligatures:normal;font-variant-caps:normal;font-variant-numeric:normal;font-feature-settings:normal;text-align:start;letter-spacing:0px;word-spacing:0px;writing-mode:lr-tb;text-anchor:start;fill:#be0000;fill-opacity:1;stroke:none;stroke-width:1.97717774;stroke-miterlimit:4;stroke-dasharray:none;stroke-opacity:1"
       transform="matrix(0.1346681,-0.08820621,0.08820621,0.1346681,-275.78615,-406.80144)"
       inkscape:export-filename="C:\Users\Taylor\Desktop\Certificate_V2_Certified2.png"
       inkscape:export-xdpi="400"
       inkscape:export-ydpi="400"><flowRegion
         id="flowRegion8922-9"
         style="font-style:normal;font-variant:normal;font-weight:bold;font-stretch:normal;font-size:39.99943161px;font-family:sans-serif;-inkscape-font-specification:'sans-serif, Bold';font-variant-ligatures:normal;font-variant-caps:normal;font-variant-numeric:normal;font-feature-settings:normal;text-align:start;writing-mode:lr-tb;text-anchor:start;fill:#be0000;fill-opacity:1;stroke:none;stroke-width:1.97717774;stroke-miterlimit:4;stroke-dasharray:none;stroke-opacity:1"><rect
           id="rect8924-9"
           width="310.41986"
           height="100.40925"
           x="104.6518"
           y="4364.604"
           style="font-style:normal;font-variant:normal;font-weight:bold;font-stretch:normal;font-size:39.99943161px;font-family:sans-serif;-inkscape-font-specification:'sans-serif, Bold';font-variant-ligatures:normal;font-variant-caps:normal;font-variant-numeric:normal;font-feature-settings:normal;text-align:start;writing-mode:lr-tb;text-anchor:start;fill:#be0000;fill-opacity:1;stroke:none;stroke-width:1.97717774;stroke-miterlimit:4;stroke-dasharray:none;stroke-opacity:1" /></flowRegion><flowPara
         id="flowPara8926-6">CERTIFIED</flowPara></flowRoot>    <path
       style="fill:none;fill-opacity:1;stroke:#be0000;stroke-width:0.17966864;stroke-linecap:butt;stroke-linejoin:miter;stroke-miterlimit:4;stroke-dasharray:none;stroke-opacity:1"
       d="m 123.12173,171.88449 c -0.27175,-0.77155 0.78723,-1.36125 4.0565,-3.32467 2.43032,-1.45951 6.08268,-4.13137 8.91356,-5.93973 8.23599,-5.26115 18.78111,-12.74917 19.93656,-12.91162 0.55443,-0.078 2.17769,2.867 2.49825,3.36682 0.32054,0.4999 2.09102,2.84227 1.91018,3.18703 -0.28223,0.53804 -6.96144,5.20632 -12.85345,8.93115 -5.892,3.72474 -11.61691,7.65488 -12.32321,8.10002 -1.41262,0.8902 -2.52655,1.83863 -4.16364,2.79784 -1.5953,0.93479 -2.82696,2.2847 -3.73063,1.94277 -0.90368,-0.34209 -1.43597,-1.65946 -2.42571,-3.01843 -0.94106,-1.29241 -1.51641,-2.27392 -1.81841,-3.13118 z"
       id="path8928-2-0-8"
       inkscape:connector-curvature="0"
       sodipodi:nodetypes="sssszsssssss"
       inkscape:export-filename="C:\Users\Taylor\Desktop\Certificate_V2_Certified2.png"
       inkscape:export-xdpi="400"
       inkscape:export-ydpi="400" />
    <circle
       style="opacity:1;fill:#ffc90e;fill-opacity:1;fill-rule:nonzero;stroke:none;stroke-width:1.18830431;stroke-linecap:round;stroke-linejoin:bevel;stroke-miterlimit:4;stroke-dasharray:none;stroke-dashoffset:0;stroke-opacity:1;paint-order:fill markers stroke"
       id="path2425-8-2"
       cx="95.282043"
       cy="156.87346"
       r="9.3691263"
       inkscape:export-filename="C:\Users\Taylor\Desktop\Certificate_V2_Certified2.png"
       inkscape:export-xdpi="400"
       inkscape:export-ydpi="400" />
  </g>
</svg>
