<?xml version="1.0" encoding="UTF-8" standalone="no"?>
<!-- Created with Inkscape (http://www.inkscape.org/) -->

<svg
   xmlns:dc="http://purl.org/dc/elements/1.1/"
   xmlns:cc="http://creativecommons.org/ns#"
   xmlns:rdf="http://www.w3.org/1999/02/22-rdf-syntax-ns#"
   xmlns:svg="http://www.w3.org/2000/svg"
   xmlns="http://www.w3.org/2000/svg"
   xmlns:sodipodi="http://sodipodi.sourceforge.net/DTD/sodipodi-0.dtd"
   xmlns:inkscape="http://www.inkscape.org/namespaces/inkscape"
   width="126.63224mm"
   height="67.440796mm"
   viewBox="0 0 126.63224 67.440796"
   version="1.1"
   id="svg5857"
   inkscape:version="0.92.3 (2405546, 2018-03-11)"
   sodipodi:docname="NoNumDesc.svg">
  <defs
     id="defs5851" />
  <sodipodi:namedview
     id="base"
     pagecolor="#ffffff"
     bordercolor="#666666"
     borderopacity="1.0"
     inkscape:pageopacity="0.0"
     inkscape:pageshadow="2"
     inkscape:zoom="1.4"
     inkscape:cx="202.24006"
     inkscape:cy="119.79926"
     inkscape:document-units="mm"
     inkscape:current-layer="layer1"
     showgrid="false"
     inkscape:window-width="1920"
     inkscape:window-height="1001"
     inkscape:window-x="-9"
     inkscape:window-y="-9"
     inkscape:window-maximized="1" />
  <metadata
     id="metadata5854">
    <rdf:RDF>
      <cc:Work
         rdf:about="">
        <dc:format>image/svg+xml</dc:format>
        <dc:type
           rdf:resource="http://purl.org/dc/dcmitype/StillImage" />
        <dc:title></dc:title>
      </cc:Work>
    </rdf:RDF>
  </metadata>
  <g
     inkscape:label="Layer 1"
     inkscape:groupmode="layer"
     id="layer1"
     transform="translate(-50.076737,-80.339127)">
    <path
       style="fill:none;stroke:#000000;stroke-width:0.39028528px;stroke-linecap:butt;stroke-linejoin:miter;stroke-opacity:1"
       d="m 53.99136,133.0775 74.9835,-10e-4 h 42.7451"
       id="path1906-11"
       inkscape:connector-curvature="0"
       sodipodi:nodetypes="ccc"
       inkscape:export-filename="C:\NoFloodFL\Website\MyFloodScore_Logos\MyFloodScore\Graphics\24_Score_LowRisk.png"
       inkscape:export-xdpi="400"
       inkscape:export-ydpi="400" />
    <path
       style="fill:none;stroke:#00b366;stroke-width:3.68773508;stroke-linecap:round;stroke-linejoin:round;stroke-miterlimit:4;stroke-dasharray:none;stroke-opacity:1"
       d="m 61.79711,133.0775 c 0,0 0.53074,-12.81026 4.78683,-21.19925"
       id="path1908-72"
       inkscape:connector-curvature="0"
       sodipodi:nodetypes="cc"
       inkscape:export-filename="C:\NoFloodFL\Website\MyFloodScore_Logos\MyFloodScore\Graphics\24_Score_LowRisk.png"
       inkscape:export-xdpi="400"
       inkscape:export-ydpi="400" />
    <path
       style="fill:none;stroke:#0069c1;stroke-width:3.68773508;stroke-linecap:round;stroke-linejoin:round;stroke-miterlimit:4;stroke-dasharray:none;stroke-opacity:1"
       d="m 68.50658,108.46302 c 0,0 6.50029,-10.78923 13.911461,-16.052701"
       id="path1908-7-68"
       inkscape:connector-curvature="0"
       sodipodi:nodetypes="cc"
       inkscape:export-filename="C:\NoFloodFL\Website\MyFloodScore_Logos\MyFloodScore\Graphics\24_Score_LowRisk.png"
       inkscape:export-xdpi="400"
       inkscape:export-ydpi="400" />
    <path
       style="fill:none;stroke:#fed220;stroke-width:3.6880002;stroke-linecap:round;stroke-linejoin:round;stroke-miterlimit:4;stroke-dasharray:none;stroke-opacity:1"
       d="m 85.623259,90.099378 c 0,0 14.685501,-10.027572 32.928101,-7.509645"
       id="path1908-7-8-0"
       inkscape:connector-curvature="0"
       sodipodi:nodetypes="cc"
       inkscape:export-filename="C:\NoFloodFL\Website\MyFloodScore_Logos\MyFloodScore\Graphics\24_Score_LowRisk.png"
       inkscape:export-xdpi="400"
       inkscape:export-ydpi="400" />
    <path
       style="fill:none;stroke:#ff8439;stroke-width:3.68773508;stroke-linecap:round;stroke-linejoin:round;stroke-miterlimit:4;stroke-dasharray:none;stroke-opacity:1"
       d="m 150.56486,98.51427 c 0,0 -11.5174,-12.967829 -28.133,-15.485402"
       id="path1908-7-8-8-0"
       inkscape:connector-curvature="0"
       sodipodi:nodetypes="cc"
       inkscape:export-filename="C:\NoFloodFL\Website\MyFloodScore_Logos\MyFloodScore\Graphics\24_Score_LowRisk.png"
       inkscape:export-xdpi="400"
       inkscape:export-ydpi="400" />
    <path
       style="fill:none;stroke:#ff605f;stroke-width:3.68773508;stroke-linecap:round;stroke-linejoin:round;stroke-miterlimit:4;stroke-dasharray:none;stroke-opacity:1"
       d="m 153.35106,101.63165 c 0,0 9.978,10.66284 10.7711,31.54343"
       id="path1908-7-8-8-7-3"
       inkscape:connector-curvature="0"
       sodipodi:nodetypes="cc"
       inkscape:export-filename="C:\NoFloodFL\Website\MyFloodScore_Logos\MyFloodScore\Graphics\24_Score_LowRisk.png"
       inkscape:export-xdpi="400"
       inkscape:export-ydpi="400" />
    <g
       aria-label="24"
       transform="matrix(0.60425401,-9.7629398e-4,9.7629398e-4,0.60425401,-144.20169,-157.66801)"
       style="font-style:normal;font-variant:normal;font-weight:bold;font-stretch:normal;font-size:40px;line-height:1.25;font-family:'Montserrat Alternates';-inkscape-font-specification:'Montserrat Alternates, Bold';font-variant-ligatures:normal;font-variant-caps:normal;font-variant-numeric:normal;font-feature-settings:normal;text-align:start;letter-spacing:0px;word-spacing:0px;writing-mode:lr-tb;text-anchor:start;fill:#4d4d4d;fill-opacity:1;stroke:none;stroke-opacity:1"
       id="flowRoot8458-4-1-9-3-8-6-0">
      <path
         d="m 226.76516,477.57554 v 5.28 h -21.16 v -4.2 l 10.8,-10.2 q 1.72,-1.64 2.32,-2.8 0.6,-1.2 0.6,-2.36 0,-1.68 -1.16,-2.56 -1.12,-0.92 -3.32,-0.92 -1.84,0 -3.32,0.72 -1.48,0.68 -2.48,2.08 l -4.72,-3.04 q 1.64,-2.44 4.52,-3.8 2.88,-1.4 6.6,-1.4 3.12,0 5.44,1.04 2.36,1 3.64,2.88 1.32,1.84 1.32,4.36 0,2.28 -0.96,4.28 -0.96,2 -3.72,4.56 l -6.44,6.08 z"
         style="fill:#4d4d4d;fill-opacity:1;stroke:none;stroke-opacity:1"
         id="path8228" />
      <path
         d="m 254.68828,476.97554 h -4.56 v 5.88 h -6.32 v -5.88 h -15.08 v -4.36 l 13.2,-17.76 h 6.8 l -12.24,16.84 h 7.52 v -5.24 h 6.12 v 5.24 h 4.56 z"
         style="fill:#4d4d4d;fill-opacity:1;stroke:none;stroke-opacity:1"
         id="path8230" />
    </g>
    <text
       inkscape:export-ydpi="400"
       inkscape:export-xdpi="400"
       inkscape:export-filename="C:\NoFloodFL\Website\MyFloodScore_Logos\MyFloodScore\Graphics\24_Score_LowRisk.png"
       transform="scale(0.94749244,1.0554174)"
       id="text4528-2-4-6-7-9-6-6-7-1-1-0-17-5-9-0-1-1-3-6"
       y="154.15997"
       x="-26.141459"
       style="font-style:normal;font-variant:normal;font-weight:bold;font-stretch:normal;font-size:7.90457821px;line-height:1.25;font-family:'Montserrat Alternates';-inkscape-font-specification:'Montserrat Alternates, Bold';font-variant-ligatures:normal;font-variant-caps:normal;font-variant-numeric:normal;font-feature-settings:normal;text-align:start;letter-spacing:0px;word-spacing:0px;writing-mode:lr-tb;text-anchor:start;display:inline;fill:#4d4d4d;fill-opacity:1;stroke:none;stroke-width:0.28009236;stroke-miterlimit:4;stroke-dasharray:none;stroke-opacity:1"
       xml:space="preserve"><tspan
         style="font-style:normal;font-variant:normal;font-weight:bold;font-stretch:normal;font-size:7.90457821px;font-family:'Montserrat Alternates';-inkscape-font-specification:'Montserrat Alternates, Bold';font-variant-ligatures:normal;font-variant-caps:normal;font-variant-numeric:normal;font-feature-settings:normal;text-align:start;writing-mode:lr-tb;text-anchor:start;fill:#4d4d4d;fill-opacity:1;stroke:none;stroke-width:0.28009236;stroke-miterlimit:4;stroke-dasharray:none;stroke-opacity:1"
         y="154.15997"
         x="-26.141459"
         id="tspan4526-1-9-5-8-3-1-8-5-5-4-9-2-5-8-6-5-7-1-4"
         sodipodi:role="line">good</tspan></text>
    <g
       aria-label="10"
       transform="matrix(0.17377839,-2.8077319e-4,2.8077319e-4,0.17377839,22.697955,58.035155)"
       style="font-style:normal;font-variant:normal;font-weight:bold;font-stretch:normal;font-size:40px;line-height:1.25;font-family:'Montserrat Alternates';-inkscape-font-specification:'Montserrat Alternates, Bold';font-variant-ligatures:normal;font-variant-caps:normal;font-variant-numeric:normal;font-feature-settings:normal;text-align:start;letter-spacing:0px;word-spacing:0px;writing-mode:lr-tb;text-anchor:start;fill:#4d4d4d;fill-opacity:1;stroke:none;stroke-opacity:1"
       id="flowRoot8458-4-1-9-3-8-6-8-8">
      <path
         d="m 216.64516,454.85554 v 28 h -6.48 v -22.8 h -5.6 v -5.2 z"
         style="fill:#4d4d4d;fill-opacity:1;stroke:none;stroke-opacity:1"
         id="path8223" />
      <path
         d="m 233.54828,483.33554 q -3.48,0 -6.2,-1.72 -2.72,-1.72 -4.28,-4.96 -1.52,-3.28 -1.52,-7.8 0,-4.52 1.52,-7.76 1.56,-3.28 4.28,-5 2.72,-1.72 6.2,-1.72 3.48,0 6.2,1.72 2.72,1.72 4.24,5 1.56,3.24 1.56,7.76 0,4.52 -1.56,7.8 -1.52,3.24 -4.24,4.96 -2.72,1.72 -6.2,1.72 z m 0,-5.48 q 2.56,0 4,-2.2 1.48,-2.2 1.48,-6.8 0,-4.6 -1.48,-6.8 -1.44,-2.2 -4,-2.2 -2.52,0 -4,2.2 -1.44,2.2 -1.44,6.8 0,4.6 1.44,6.8 1.48,2.2 4,2.2 z"
         style="fill:#4d4d4d;fill-opacity:1;stroke:none;stroke-opacity:1"
         id="path8225" />
    </g>
    <g
       aria-label="95"
       transform="matrix(0.17377839,-2.8077319e-4,2.8077319e-4,0.17377839,124.06425,57.2507)"
       style="font-style:normal;font-variant:normal;font-weight:bold;font-stretch:normal;font-size:40px;line-height:1.25;font-family:'Montserrat Alternates';-inkscape-font-specification:'Montserrat Alternates, Bold';font-variant-ligatures:normal;font-variant-caps:normal;font-variant-numeric:normal;font-feature-settings:normal;text-align:start;letter-spacing:0px;word-spacing:0px;writing-mode:lr-tb;text-anchor:start;fill:#4d4d4d;fill-opacity:1;stroke:none;stroke-opacity:1"
       id="flowRoot8458-4-1-9-3-8-6-8-7-5">
      <path
         d="m 215.68516,454.37554 q 5.88,0 9.2,3.6 3.32,3.56 3.32,10.28 0,4.76 -1.8,8.16 -1.76,3.4 -5,5.16 -3.24,1.76 -7.48,1.76 -2.24,0 -4.28,-0.48 -2.04,-0.52 -3.48,-1.44 l 2.4,-4.76 q 2.04,1.4 5.24,1.4 3.56,0 5.64,-2.08 2.08,-2.12 2.24,-6.08 -2.52,2.52 -6.96,2.52 -2.68,0 -4.88,-1.08 -2.2,-1.08 -3.48,-3.04 -1.28,-2 -1.28,-4.6 0,-2.8 1.4,-4.92 1.4,-2.12 3.8,-3.24 2.44,-1.16 5.4,-1.16 z m 0.48,13.2 q 2.12,0 3.44,-1.16 1.36,-1.2 1.36,-3.04 0,-1.84 -1.32,-3 -1.28,-1.16 -3.56,-1.16 -2.08,0 -3.4,1.12 -1.28,1.12 -1.28,3.04 0,1.92 1.28,3.08 1.32,1.12 3.48,1.12 z"
         style="fill:#4d4d4d;fill-opacity:1;stroke:none;stroke-opacity:1"
         id="path8218" />
      <path
         d="m 240.91391,465.37554 q 5.92,0 8.72,2.36 2.84,2.36 2.84,6.32 0,2.56 -1.28,4.68 -1.28,2.08 -3.92,3.36 -2.6,1.24 -6.44,1.24 -2.96,0 -5.84,-0.76 -2.84,-0.8 -4.84,-2.24 l 2.56,-4.96 q 1.6,1.2 3.68,1.88 2.08,0.64 4.28,0.64 2.44,0 3.84,-0.96 1.4,-0.96 1.4,-2.68 0,-1.8 -1.48,-2.72 -1.44,-0.92 -5.04,-0.92 h -7.16 l 1.44,-15.76 h 17.08 v 5.2 h -11.68 l -0.44,5.32 z"
         style="fill:#4d4d4d;fill-opacity:1;stroke:none;stroke-opacity:1"
         id="path8220" />
    </g>
    <g
       aria-label="20"
       transform="matrix(0.11667805,-1.8851702e-4,1.8851702e-4,0.11667805,45.948956,57.645892)"
       style="font-style:normal;font-variant:normal;font-weight:bold;font-stretch:normal;font-size:40px;line-height:1.25;font-family:'Montserrat Alternates';-inkscape-font-specification:'Montserrat Alternates, Bold';font-variant-ligatures:normal;font-variant-caps:normal;font-variant-numeric:normal;font-feature-settings:normal;text-align:start;letter-spacing:0px;word-spacing:0px;writing-mode:lr-tb;text-anchor:start;fill:#4d4d4d;fill-opacity:1;stroke:none;stroke-opacity:1"
       id="flowRoot8458-4-1-9-3-8-6-8-8-7">
      <path
         d="m 226.76516,477.57554 v 5.28 h -21.16 v -4.2 l 10.8,-10.2 q 1.72,-1.64 2.32,-2.8 0.6,-1.2 0.6,-2.36 0,-1.68 -1.16,-2.56 -1.12,-0.92 -3.32,-0.92 -1.84,0 -3.32,0.72 -1.48,0.68 -2.48,2.08 l -4.72,-3.04 q 1.64,-2.44 4.52,-3.8 2.88,-1.4 6.6,-1.4 3.12,0 5.44,1.04 2.36,1 3.64,2.88 1.32,1.84 1.32,4.36 0,2.28 -0.96,4.28 -0.96,2 -3.72,4.56 l -6.44,6.08 z"
         style="fill:#4d4d4d;fill-opacity:1;stroke:none;stroke-opacity:1"
         id="path8198" />
      <path
         d="m 241.36078,483.33554 q -3.48,0 -6.2,-1.72 -2.72,-1.72 -4.28,-4.96 -1.52,-3.28 -1.52,-7.8 0,-4.52 1.52,-7.76 1.56,-3.28 4.28,-5 2.72,-1.72 6.2,-1.72 3.48,0 6.2,1.72 2.72,1.72 4.24,5 1.56,3.24 1.56,7.76 0,4.52 -1.56,7.8 -1.52,3.24 -4.24,4.96 -2.72,1.72 -6.2,1.72 z m 0,-5.48 q 2.56,0 4,-2.2 1.48,-2.2 1.48,-6.8 0,-4.6 -1.48,-6.8 -1.44,-2.2 -4,-2.2 -2.52,0 -4,2.2 -1.44,2.2 -1.44,6.8 0,4.6 1.44,6.8 1.48,2.2 4,2.2 z"
         style="fill:#4d4d4d;fill-opacity:1;stroke:none;stroke-opacity:1"
         id="path8200" />
    </g>
    <g
       aria-label="30"
       transform="matrix(0.11667805,-1.8851702e-4,1.8851702e-4,0.11667805,60.628992,41.641621)"
       style="font-style:normal;font-variant:normal;font-weight:bold;font-stretch:normal;font-size:40px;line-height:1.25;font-family:'Montserrat Alternates';-inkscape-font-specification:'Montserrat Alternates, Bold';font-variant-ligatures:normal;font-variant-caps:normal;font-variant-numeric:normal;font-feature-settings:normal;text-align:start;letter-spacing:0px;word-spacing:0px;writing-mode:lr-tb;text-anchor:start;fill:#4d4d4d;fill-opacity:1;stroke:none;stroke-opacity:1"
       id="flowRoot8458-4-1-9-3-8-6-8-8-7-2">
      <path
         d="m 218.92516,466.25554 q 3.68,0.6 5.64,2.76 1.96,2.12 1.96,5.28 0,2.44 -1.28,4.52 -1.28,2.04 -3.92,3.28 -2.6,1.24 -6.4,1.24 -2.96,0 -5.84,-0.76 -2.84,-0.8 -4.84,-2.24 l 2.52,-4.96 q 1.6,1.2 3.68,1.88 2.12,0.64 4.32,0.64 2.44,0 3.84,-0.92 1.4,-0.96 1.4,-2.68 0,-3.44 -5.24,-3.44 h -2.96 v -4.28 l 5.76,-6.52 h -11.92 v -5.2 h 19.6 v 4.2 z"
         style="fill:#4d4d4d;fill-opacity:1;stroke:none;stroke-opacity:1"
         id="path8203" />
      <path
         d="m 241.51703,483.33554 q -3.48,0 -6.2,-1.72 -2.72,-1.72 -4.28,-4.96 -1.52,-3.28 -1.52,-7.8 0,-4.52 1.52,-7.76 1.56,-3.28 4.28,-5 2.72,-1.72 6.2,-1.72 3.48,0 6.2,1.72 2.72,1.72 4.24,5 1.56,3.24 1.56,7.76 0,4.52 -1.56,7.8 -1.52,3.24 -4.24,4.96 -2.72,1.72 -6.2,1.72 z m 0,-5.48 q 2.56,0 4,-2.2 1.48,-2.2 1.48,-6.8 0,-4.6 -1.48,-6.8 -1.44,-2.2 -4,-2.2 -2.52,0 -4,2.2 -1.44,2.2 -1.44,6.8 0,4.6 1.44,6.8 1.48,2.2 4,2.2 z"
         style="fill:#4d4d4d;fill-opacity:1;stroke:none;stroke-opacity:1"
         id="path8205" />
    </g>
    <g
       aria-label="50"
       transform="matrix(0.11667805,-1.8851702e-4,1.8851702e-4,0.11667805,93.293048,33.081932)"
       style="font-style:normal;font-variant:normal;font-weight:bold;font-stretch:normal;font-size:40px;line-height:1.25;font-family:'Montserrat Alternates';-inkscape-font-specification:'Montserrat Alternates, Bold';font-variant-ligatures:normal;font-variant-caps:normal;font-variant-numeric:normal;font-feature-settings:normal;text-align:start;letter-spacing:0px;word-spacing:0px;writing-mode:lr-tb;text-anchor:start;fill:#4d4d4d;fill-opacity:1;stroke:none;stroke-opacity:1"
       id="flowRoot8458-4-1-9-3-8-6-8-8-7-2-9">
      <path
         d="m 215.44516,465.37554 q 5.92,0 8.72,2.36 2.84,2.36 2.84,6.32 0,2.56 -1.28,4.68 -1.28,2.08 -3.92,3.36 -2.6,1.24 -6.44,1.24 -2.96,0 -5.84,-0.76 -2.84,-0.8 -4.84,-2.24 l 2.56,-4.96 q 1.6,1.2 3.68,1.88 2.08,0.64 4.28,0.64 2.44,0 3.84,-0.96 1.4,-0.96 1.4,-2.68 0,-1.8 -1.48,-2.72 -1.44,-0.92 -5.04,-0.92 h -7.16 l 1.44,-15.76 h 17.08 v 5.2 h -11.68 l -0.44,5.32 z"
         style="fill:#4d4d4d;fill-opacity:1;stroke:none;stroke-opacity:1"
         id="path8208" />
      <path
         d="m 241.67328,483.33554 q -3.48,0 -6.2,-1.72 -2.72,-1.72 -4.28,-4.96 -1.52,-3.28 -1.52,-7.8 0,-4.52 1.52,-7.76 1.56,-3.28 4.28,-5 2.72,-1.72 6.2,-1.72 3.48,0 6.2,1.72 2.72,1.72 4.24,5 1.56,3.24 1.56,7.76 0,4.52 -1.56,7.8 -1.52,3.24 -4.24,4.96 -2.72,1.72 -6.2,1.72 z m 0,-5.48 q 2.56,0 4,-2.2 1.48,-2.2 1.48,-6.8 0,-4.6 -1.48,-6.8 -1.44,-2.2 -4,-2.2 -2.52,0 -4,2.2 -1.44,2.2 -1.44,6.8 0,4.6 1.44,6.8 1.48,2.2 4,2.2 z"
         style="fill:#4d4d4d;fill-opacity:1;stroke:none;stroke-opacity:1"
         id="path8210" />
    </g>
    <g
       aria-label="70"
       transform="matrix(0.11667805,-1.8851702e-4,1.8851702e-4,0.11667805,120.61395,48.676656)"
       style="font-style:normal;font-variant:normal;font-weight:bold;font-stretch:normal;font-size:40px;line-height:1.25;font-family:'Montserrat Alternates';-inkscape-font-specification:'Montserrat Alternates, Bold';font-variant-ligatures:normal;font-variant-caps:normal;font-variant-numeric:normal;font-feature-settings:normal;text-align:start;letter-spacing:0px;word-spacing:0px;writing-mode:lr-tb;text-anchor:start;fill:#4d4d4d;fill-opacity:1;stroke:none;stroke-opacity:1"
       id="flowRoot8458-4-1-9-3-8-6-8-8-7-2-9-3">
      <path
         d="m 227.76516,454.85554 v 4.2 l -10.4,23.8 h -7.04 l 10.04,-22.72 h -9.28 v 4.56 h -5.76 v -9.84 z"
         style="fill:#4d4d4d;fill-opacity:1;stroke:none;stroke-opacity:1"
         id="path8213" />
      <path
         d="m 241.82953,483.33554 q -3.48,0 -6.2,-1.72 -2.72,-1.72 -4.28,-4.96 -1.52,-3.28 -1.52,-7.8 0,-4.52 1.52,-7.76 1.56,-3.28 4.28,-5 2.72,-1.72 6.2,-1.72 3.48,0 6.2,1.72 2.72,1.72 4.24,5 1.56,3.24 1.56,7.76 0,4.52 -1.56,7.8 -1.52,3.24 -4.24,4.96 -2.72,1.72 -6.2,1.72 z m 0,-5.48 q 2.56,0 4,-2.2 1.48,-2.2 1.48,-6.8 0,-4.6 -1.48,-6.8 -1.44,-2.2 -4,-2.2 -2.52,0 -4,2.2 -1.44,2.2 -1.44,6.8 0,4.6 1.44,6.8 1.48,2.2 4,2.2 z"
         style="fill:#4d4d4d;fill-opacity:1;stroke:none;stroke-opacity:1"
         id="path8215" />
    </g>
    <text
       inkscape:export-ydpi="400"
       inkscape:export-xdpi="400"
       inkscape:export-filename="C:\NoFloodFL\Website\MyFloodScore_Logos\MyFloodScore\Graphics\24_Score_LowRisk.png"
       transform="scale(0.94749244,1.0554174)"
       id="text4528-2-4-6-7-9-6-6-7-1-1-0-17-5-9-0-1-1-3-6-8"
       y="139.11098"
       x="52.887875"
       style="font-style:normal;font-variant:normal;font-weight:bold;font-stretch:normal;font-size:4.5019002px;line-height:1.25;font-family:'Montserrat Alternates';-inkscape-font-specification:'Montserrat Alternates, Bold';font-variant-ligatures:normal;font-variant-caps:normal;font-variant-numeric:normal;font-feature-settings:normal;text-align:start;letter-spacing:0px;word-spacing:0px;writing-mode:lr-tb;text-anchor:start;display:inline;fill:#4d4d4d;fill-opacity:1;stroke:none;stroke-width:0.15952121;stroke-miterlimit:4;stroke-dasharray:none;stroke-opacity:1"
       xml:space="preserve"><tspan
         style="font-style:normal;font-variant:normal;font-weight:bold;font-stretch:normal;font-size:4.5019002px;font-family:'Montserrat Alternates';-inkscape-font-specification:'Montserrat Alternates, Bold';font-variant-ligatures:normal;font-variant-caps:normal;font-variant-numeric:normal;font-feature-settings:normal;text-align:start;writing-mode:lr-tb;text-anchor:start;fill:#4d4d4d;fill-opacity:1;stroke:none;stroke-width:0.15952121;stroke-miterlimit:4;stroke-dasharray:none;stroke-opacity:1"
         y="139.11098"
         x="52.887875"
         sodipodi:role="line"
         id="tspan6239">very good</tspan></text>
    <text
       inkscape:export-ydpi="400"
       inkscape:export-xdpi="400"
       inkscape:export-filename="C:\NoFloodFL\Website\MyFloodScore_Logos\MyFloodScore\Graphics\24_Score_LowRisk.png"
       transform="scale(0.94749244,1.0554174)"
       id="text4528-2-4-6-7-9-6-6-7-1-1-0-17-5-9-0-1-1-3-6-8-3"
       y="138.21973"
       x="150.09198"
       style="font-style:normal;font-variant:normal;font-weight:bold;font-stretch:normal;font-size:4.5019002px;line-height:1.25;font-family:'Montserrat Alternates';-inkscape-font-specification:'Montserrat Alternates, Bold';font-variant-ligatures:normal;font-variant-caps:normal;font-variant-numeric:normal;font-feature-settings:normal;text-align:start;letter-spacing:0px;word-spacing:0px;writing-mode:lr-tb;text-anchor:start;display:inline;fill:#4d4d4d;fill-opacity:1;stroke:none;stroke-width:0.15952121;stroke-miterlimit:4;stroke-dasharray:none;stroke-opacity:1"
       xml:space="preserve"><tspan
         style="font-style:normal;font-variant:normal;font-weight:bold;font-stretch:normal;font-size:4.5019002px;font-family:'Montserrat Alternates';-inkscape-font-specification:'Montserrat Alternates, Bold';font-variant-ligatures:normal;font-variant-caps:normal;font-variant-numeric:normal;font-feature-settings:normal;text-align:start;writing-mode:lr-tb;text-anchor:start;fill:#4d4d4d;fill-opacity:1;stroke:none;stroke-width:0.15952121;stroke-miterlimit:4;stroke-dasharray:none;stroke-opacity:1"
         y="138.21973"
         x="150.09198"
         sodipodi:role="line"
         id="tspan6239-6">extremely poor</tspan></text>
    <path
       style="opacity:1;fill:#ffffff;fill-opacity:1;stroke:#4d4d4d;stroke-width:2;stroke-linecap:butt;stroke-linejoin:miter;stroke-miterlimit:4;stroke-dasharray:none;stroke-opacity:1"
       d="m -16.342365,97.378235 c 1.0089,0.0144 1.9707,-0.89633 2.3276,-1.8331 0.1961,-0.51735 -0.053,-1.53811 -0.3932,-2.20191 -0.4082,-0.79829 -0.8764,-1.52923 -1.2246,-2.336694 -0.2823,-0.65465 -0.6966,-2.02216 -0.6966,-2.02216 0,0 -0.2889,1.19306 -0.9998,2.786074 -0.7108,1.59301 -1.4472,2.30669 -1.3931,3.25791 0,0 0.076,0.77597 0.3469,1.17198 0.2715,0.39603 1.024,1.16392 2.0328,1.1779 z"
       id="path5281-3-0-9-9-6-7-9"
       inkscape:connector-curvature="0"
       sodipodi:nodetypes="sssaczszs"
       inkscape:export-filename="C:\NoFloodFL\Website\MyFloodScore_Logos\MyFloodScore\Graphics\24_Score_LowRisk.png"
       inkscape:export-xdpi="400"
       inkscape:export-ydpi="400" />
  </g>
</svg>
