<?xml version="1.0" encoding="UTF-8" standalone="no"?>
<!-- Created with Inkscape (http://www.inkscape.org/) -->

<svg
   xmlns:dc="http://purl.org/dc/elements/1.1/"
   xmlns:cc="http://creativecommons.org/ns#"
   xmlns:rdf="http://www.w3.org/1999/02/22-rdf-syntax-ns#"
   xmlns:svg="http://www.w3.org/2000/svg"
   xmlns="http://www.w3.org/2000/svg"
   xmlns:sodipodi="http://sodipodi.sourceforge.net/DTD/sodipodi-0.dtd"
   xmlns:inkscape="http://www.inkscape.org/namespaces/inkscape"
   width="376.38864mm"
   height="120.27156mm"
   viewBox="0 0 376.38864 120.27156"
   version="1.1"
   id="svg1427"
   inkscape:version="0.92.3 (2405546, 2018-03-11)"
   sodipodi:docname="surveyincentive01.svg">
  <defs
     id="defs1421" />
  <sodipodi:namedview
     id="base"
     pagecolor="#ffffff"
     bordercolor="#666666"
     borderopacity="1.0"
     inkscape:pageopacity="0.0"
     inkscape:pageshadow="2"
     inkscape:zoom="0.35"
     inkscape:cx="176.99989"
     inkscape:cy="295.85629"
     inkscape:document-units="mm"
     inkscape:current-layer="layer1"
     showgrid="false"
     inkscape:window-width="1920"
     inkscape:window-height="1001"
     inkscape:window-x="-9"
     inkscape:window-y="-9"
     inkscape:window-maximized="1" />
  <metadata
     id="metadata1424">
    <rdf:RDF>
      <cc:Work
         rdf:about="">
        <dc:format>image/svg+xml</dc:format>
        <dc:type
           rdf:resource="http://purl.org/dc/dcmitype/StillImage" />
        <dc:title></dc:title>
      </cc:Work>
    </rdf:RDF>
  </metadata>
  <g
     inkscape:label="Layer 1"
     inkscape:groupmode="layer"
     id="layer1"
     transform="translate(74.045507,-106.84042)">
    <circle
       style="opacity:1;fill:#0065c0;fill-opacity:1;fill-rule:nonzero;stroke:none;stroke-width:0.74649531;stroke-linecap:round;stroke-linejoin:round;stroke-miterlimit:4;stroke-dasharray:none;stroke-dashoffset:0;stroke-opacity:1;paint-order:fill markers stroke"
       id="path859"
       cx="242.20749"
       cy="166.97606"
       r="60.135643"
       inkscape:export-xdpi="250"
       inkscape:export-ydpi="250" />
    <g
       id="g967"
       transform="matrix(0.80242624,0,0,0.80242624,155.65471,48.82577)"
       inkscape:export-xdpi="250"
       inkscape:export-ydpi="250">
      <path
         sodipodi:nodetypes="cc"
         inkscape:connector-curvature="0"
         id="path861-7"
         d="m 108.89452,183.77195 -0.14429,-44.53153"
         style="fill:none;stroke:#ffffff;stroke-width:2.49854946;stroke-linecap:round;stroke-linejoin:round;stroke-miterlimit:4;stroke-dasharray:none;stroke-opacity:1" />
      <path
         sodipodi:nodetypes="cc"
         inkscape:connector-curvature="0"
         id="path861-4-6"
         d="M 141.84831,192.71423 120.45609,134.0174"
         style="fill:none;stroke:#ffffff;stroke-width:2.49854946;stroke-linecap:round;stroke-linejoin:round;stroke-miterlimit:4;stroke-dasharray:none;stroke-opacity:1" />
      <path
         sodipodi:nodetypes="cc"
         inkscape:connector-curvature="0"
         id="path861-4-2-8"
         d="M 75.488,192.98149 96.88022,134.28468"
         style="fill:none;stroke:#ffffff;stroke-width:2.49854946;stroke-linecap:round;stroke-linejoin:round;stroke-miterlimit:4;stroke-dasharray:none;stroke-opacity:1" />
      <rect
         y="123.00812"
         x="91.128578"
         height="9.6217022"
         width="35.814117"
         id="rect908-7"
         style="opacity:1;fill:none;fill-opacity:0.78823529;fill-rule:nonzero;stroke:#ffffff;stroke-width:2.5;stroke-linecap:round;stroke-linejoin:round;stroke-miterlimit:4;stroke-dasharray:none;stroke-dashoffset:0;stroke-opacity:1;paint-order:fill markers stroke" />
      <rect
         y="102.16109"
         x="80.170525"
         height="13.096207"
         width="8.2853556"
         id="rect910-0"
         style="opacity:1;fill:none;fill-opacity:0.78823529;fill-rule:nonzero;stroke:#ffffff;stroke-width:2.5;stroke-linecap:round;stroke-linejoin:round;stroke-miterlimit:4;stroke-dasharray:none;stroke-dashoffset:0;stroke-opacity:1;paint-order:fill markers stroke" />
      <path
         sodipodi:nodetypes="czzcc"
         inkscape:connector-curvature="0"
         id="rect912-2"
         d="m 88.40607,103.58125 c 0,0 42.65493,-0.87603 44.60003,0.53454 1.94511,1.41057 1.79689,8.29378 -0.4009,9.58772 -2.1978,1.29395 -44.19913,0.40091 -44.19913,0.40091 z"
         style="opacity:1;fill:none;fill-opacity:0.78823529;fill-rule:nonzero;stroke:#ffffff;stroke-width:2.40048814;stroke-linecap:round;stroke-linejoin:round;stroke-miterlimit:4;stroke-dasharray:none;stroke-dashoffset:0;stroke-opacity:1;paint-order:normal" />
      <path
         sodipodi:nodetypes="czzzcc"
         inkscape:connector-curvature="0"
         id="path925-6"
         d="m 99.079867,122.67403 c 0,0 -0.734997,-13.8312 0.601353,-16.50389 1.33635,-2.6727 3.27423,-6.444846 9.75533,-6.414476 6.48111,0.0304 8.15173,4.142676 9.35444,6.681746 1.20271,2.53906 0.80181,16.57071 0.80181,16.57071 z"
         style="fill:#0064c0;fill-opacity:1;stroke:#ffffff;stroke-width:2.5;stroke-linecap:butt;stroke-linejoin:miter;stroke-miterlimit:4;stroke-dasharray:none;stroke-opacity:1" />
    </g>
    <path
       style="color:#000000;font-style:normal;font-variant:normal;font-weight:normal;font-stretch:normal;font-size:medium;line-height:normal;font-family:sans-serif;font-variant-ligatures:normal;font-variant-position:normal;font-variant-caps:normal;font-variant-numeric:normal;font-variant-alternates:normal;font-feature-settings:normal;text-indent:0;text-align:start;text-decoration:none;text-decoration-line:none;text-decoration-style:solid;text-decoration-color:#000000;letter-spacing:normal;word-spacing:normal;text-transform:none;writing-mode:lr-tb;direction:ltr;text-orientation:mixed;dominant-baseline:auto;baseline-shift:baseline;text-anchor:start;white-space:normal;shape-padding:0;clip-rule:nonzero;display:inline;overflow:visible;visibility:visible;opacity:1;isolation:auto;mix-blend-mode:normal;color-interpolation:sRGB;color-interpolation-filters:linearRGB;solid-color:#000000;solid-opacity:1;vector-effect:none;fill:#ffffff;fill-opacity:1;fill-rule:nonzero;stroke:none;stroke-width:1.52646375;stroke-linecap:round;stroke-linejoin:round;stroke-miterlimit:4;stroke-dasharray:none;stroke-dashoffset:0;stroke-opacity:1;paint-order:fill markers stroke;color-rendering:auto;image-rendering:auto;shape-rendering:auto;text-rendering:auto;enable-background:accumulate"
       d="m 242.20809,112.47091 c -30.09352,0 -54.50587,24.41234 -54.50587,54.50586 0,30.09352 24.41235,54.50391 54.50587,54.50391 30.09352,0 54.50586,-24.41039 54.50586,-54.50391 0,-30.09352 -24.41234,-54.50586 -54.50586,-54.50586 z m 0,1.52539 c 29.26855,0 52.9785,23.71191 52.9785,52.98047 0,29.26856 -23.70995,52.97852 -52.9785,52.97852 -29.26858,0 -52.98048,-23.70996 -52.98048,-52.97852 0,-29.26856 23.7119,-52.98047 52.98048,-52.98047 z"
       id="path859-8"
       inkscape:connector-curvature="0"
       inkscape:export-xdpi="250"
       inkscape:export-ydpi="250" />
    <circle
       style="opacity:1;fill:#0098b2;fill-opacity:1;fill-rule:nonzero;stroke:none;stroke-width:0.74649531;stroke-linecap:round;stroke-linejoin:round;stroke-miterlimit:4;stroke-dasharray:none;stroke-dashoffset:0;stroke-opacity:1;paint-order:fill markers stroke"
       id="path859-0"
       cx="114.67883"
       cy="166.97633"
       r="60.135643"
       inkscape:export-xdpi="250"
       inkscape:export-ydpi="250" />
    <path
       style="color:#000000;font-style:normal;font-variant:normal;font-weight:normal;font-stretch:normal;font-size:medium;line-height:normal;font-family:sans-serif;font-variant-ligatures:normal;font-variant-position:normal;font-variant-caps:normal;font-variant-numeric:normal;font-variant-alternates:normal;font-feature-settings:normal;text-indent:0;text-align:start;text-decoration:none;text-decoration-line:none;text-decoration-style:solid;text-decoration-color:#000000;letter-spacing:normal;word-spacing:normal;text-transform:none;writing-mode:lr-tb;direction:ltr;text-orientation:mixed;dominant-baseline:auto;baseline-shift:baseline;text-anchor:start;white-space:normal;shape-padding:0;clip-rule:nonzero;display:inline;overflow:visible;visibility:visible;opacity:1;isolation:auto;mix-blend-mode:normal;color-interpolation:sRGB;color-interpolation-filters:linearRGB;solid-color:#000000;solid-opacity:1;vector-effect:none;fill:#ffffff;fill-opacity:1;fill-rule:nonzero;stroke:none;stroke-width:1.52646375;stroke-linecap:round;stroke-linejoin:round;stroke-miterlimit:4;stroke-dasharray:none;stroke-dashoffset:0;stroke-opacity:1;paint-order:fill markers stroke;color-rendering:auto;image-rendering:auto;shape-rendering:auto;text-rendering:auto;enable-background:accumulate"
       d="m 114.6776,112.47117 c -30.093357,0 -54.505557,24.41234 -54.505557,54.50586 0,30.09352 24.4122,54.5039 54.505557,54.5039 30.09345,0 54.50579,-24.41038 54.50579,-54.5039 0,-30.09352 -24.41234,-54.50586 -54.50579,-54.50586 z m 0,1.52539 c 29.26848,0 52.97844,23.71191 52.97844,52.98047 0,29.26856 -23.70996,52.97851 -52.97844,52.97851 -29.268397,0 -52.980177,-23.70995 -52.980177,-52.97851 0,-29.26856 23.71178,-52.98047 52.980177,-52.98047 z"
       id="path859-8-1"
       inkscape:connector-curvature="0"
       inkscape:export-xdpi="250"
       inkscape:export-ydpi="250" />
    <circle
       style="opacity:1;fill:#00b365;fill-opacity:1;fill-rule:nonzero;stroke:none;stroke-width:0.74649531;stroke-linecap:round;stroke-linejoin:round;stroke-miterlimit:4;stroke-dasharray:none;stroke-dashoffset:0;stroke-opacity:1;paint-order:fill markers stroke"
       id="path859-0-4"
       cx="-13.909864"
       cy="166.97606"
       r="60.135643"
       inkscape:export-xdpi="250"
       inkscape:export-ydpi="250" />
    <path
       style="color:#000000;font-style:normal;font-variant:normal;font-weight:normal;font-stretch:normal;font-size:medium;line-height:normal;font-family:sans-serif;font-variant-ligatures:normal;font-variant-position:normal;font-variant-caps:normal;font-variant-numeric:normal;font-variant-alternates:normal;font-feature-settings:normal;text-indent:0;text-align:start;text-decoration:none;text-decoration-line:none;text-decoration-style:solid;text-decoration-color:#000000;letter-spacing:normal;word-spacing:normal;text-transform:none;writing-mode:lr-tb;direction:ltr;text-orientation:mixed;dominant-baseline:auto;baseline-shift:baseline;text-anchor:start;white-space:normal;shape-padding:0;clip-rule:nonzero;display:inline;overflow:visible;visibility:visible;opacity:1;isolation:auto;mix-blend-mode:normal;color-interpolation:sRGB;color-interpolation-filters:linearRGB;solid-color:#000000;solid-opacity:1;vector-effect:none;fill:#ffffff;fill-opacity:1;fill-rule:nonzero;stroke:none;stroke-width:1.52646375;stroke-linecap:round;stroke-linejoin:round;stroke-miterlimit:4;stroke-dasharray:none;stroke-dashoffset:0;stroke-opacity:1;paint-order:fill markers stroke;color-rendering:auto;image-rendering:auto;shape-rendering:auto;text-rendering:auto;enable-background:accumulate"
       d="m -13.911065,112.4709 c -30.093362,0 -54.505561,24.41234 -54.505561,54.50586 0,30.09352 24.412199,54.50391 54.505561,54.50391 30.093362,0 54.505548,-24.41039 54.505548,-54.50391 0,-30.09352 -24.412186,-54.50586 -54.505548,-54.50586 z m 0,1.52539 c 29.268399,0 52.978208,23.71191 52.978208,52.98047 0,29.26857 -23.709809,52.97852 -52.978208,52.97852 -29.268402,0 -52.980181,-23.70995 -52.980181,-52.97852 0,-29.26856 23.711779,-52.98047 52.980181,-52.98047 z"
       id="path859-8-1-9"
       inkscape:connector-curvature="0"
       inkscape:export-xdpi="250"
       inkscape:export-ydpi="250" />
    <g
       transform="translate(29.728213,-262.32234)"
       id="g1333"
       inkscape:export-xdpi="250"
       inkscape:export-ydpi="250">
      <ellipse
         ry="15.367718"
         rx="15.752643"
         cy="442.80011"
         cx="98.677223"
         id="path1111-6"
         style="opacity:1;fill:none;fill-opacity:0.70980392;fill-rule:nonzero;stroke:#ffffff;stroke-width:2.9028039;stroke-linecap:butt;stroke-linejoin:round;stroke-miterlimit:4;stroke-dasharray:none;stroke-dashoffset:0;stroke-opacity:1;paint-order:markers fill stroke" />
      <path
         sodipodi:nodetypes="cccccccccc"
         inkscape:connector-curvature="0"
         id="path1113-4"
         d="m 52.103893,424.8291 29.801085,-21.01899 30.952872,21.16301 -0.28786,2.73535 c 0,0 -7.91812,-6.91042 -15.692336,-5.75864 -7.774194,1.15182 -12.381133,5.61475 -12.381133,5.61475 l -12.237165,0.71978 0.287859,28.93733 -20.155335,0.43187 z"
         style="fill:#ffffff;fill-opacity:1;stroke:none;stroke-width:1.1401571px;stroke-linecap:butt;stroke-linejoin:miter;stroke-opacity:1" />
      <path
         sodipodi:nodetypes="cccccc"
         inkscape:connector-curvature="0"
         id="path1115-6"
         d="m 75.282601,431.88348 5.773541,-0.34388 c 0,0 -4.189976,7.97403 -3.326185,13.7327 0.863919,5.75859 6.622506,11.8052 6.622506,11.8052 h -8.49406 z"
         style="fill:#ffffff;fill-opacity:1;stroke:none;stroke-width:1.1401571px;stroke-linecap:butt;stroke-linejoin:miter;stroke-opacity:1" />
      <path
         sodipodi:nodetypes="cczcccc"
         inkscape:connector-curvature="0"
         id="path1117-6"
         d="m 109.9553,458.18877 7.58658,6.99328 c 0,0 2.04815,0.72856 3.26033,-0.40723 1.2122,-1.13579 0.53221,-3.03936 0.53221,-3.03936 l -10.00205,-9.79123 -3.94525,3.69377 z"
         style="fill:#ffffff;fill-opacity:1;stroke:none;stroke-width:1.1401571px;stroke-linecap:butt;stroke-linejoin:miter;stroke-opacity:1" />
      <path
         inkscape:connector-curvature="0"
         id="path1119-3"
         d="m 88.383513,441.67325 c 0,0 0.287858,-3.16726 3.167303,-5.6147 2.879315,-2.44735 6.334523,-3.02324 6.334523,-3.02324"
         style="fill:none;stroke:#ffffff;stroke-width:1.1401571px;stroke-linecap:butt;stroke-linejoin:miter;stroke-opacity:1" />
      <path
         sodipodi:nodetypes="ccccc"
         inkscape:connector-curvature="0"
         id="path1121-1"
         d="m 96.877576,390.853 0.143929,7.4863 7.774155,5.90268 -4e-5,-13.3889 z"
         style="fill:#ffffff;fill-opacity:1;stroke:none;stroke-width:1.1401571px;stroke-linecap:butt;stroke-linejoin:miter;stroke-opacity:1" />
      <path
         inkscape:connector-curvature="0"
         id="path1123-5"
         d="m 44.193157,419.91745 v 6.28671 l 37.720423,-26.22032 38.33384,26.6803 v -7.36005 L 82.373636,392.31701 Z"
         style="fill:#ffffff;fill-opacity:1;stroke:none;stroke-width:1.21435213px;stroke-linecap:butt;stroke-linejoin:miter;stroke-opacity:1" />
      <path
         inkscape:connector-curvature="0"
         id="path1170-5"
         d="m 75.96044,417.68321 v 3.84028 h 5.668945 v -3.84028 z"
         style="fill:#0098b2;fill-opacity:0.93333333;stroke:none;stroke-width:1.02407289px;stroke-linecap:butt;stroke-linejoin:miter;stroke-opacity:1" />
      <path
         inkscape:connector-curvature="0"
         id="path1170-7-3"
         d="m 82.289959,417.59175 v 3.84028 h 5.668945 v -3.84028 z"
         style="fill:#0098b2;fill-opacity:0.93333333;stroke:none;stroke-width:1.02407289px;stroke-linecap:butt;stroke-linejoin:miter;stroke-opacity:1" />
      <path
         sodipodi:nodetypes="ccczc"
         inkscape:connector-curvature="0"
         id="path1187-3"
         d="m 76.155437,416.89621 h 5.430989 v -4.33184 c 0,0 -2.741797,-0.31119 -4.073248,0.96983 -1.331457,1.28099 -1.357741,3.36201 -1.357741,3.36201 z"
         style="fill:#0098b2;fill-opacity:0.93333333;stroke:none;stroke-width:1.02407289px;stroke-linecap:butt;stroke-linejoin:miter;stroke-opacity:1" />
      <path
         sodipodi:nodetypes="ccczc"
         inkscape:connector-curvature="0"
         id="path1187-8-0"
         d="m 87.88563,416.74576 h -5.430985 v -4.33183 c 0,0 2.871108,-0.11729 4.07325,0.96986 1.202142,1.08699 1.357736,3.36196 1.357735,3.36197 z"
         style="fill:#0098b2;fill-opacity:0.93333333;stroke:none;stroke-width:1.02407289px;stroke-linecap:butt;stroke-linejoin:miter;stroke-opacity:1" />
      <path
         inkscape:connector-curvature="0"
         id="path1170-5-2"
         d="m 56.274568,432.08886 v 9.35113 h 5.668945 v -9.35113 z"
         style="fill:#0098b2;fill-opacity:0.93333333;stroke:none;stroke-width:1.59801769px;stroke-linecap:butt;stroke-linejoin:miter;stroke-opacity:1" />
      <path
         inkscape:connector-curvature="0"
         id="path1170-7-3-2"
         d="m 62.604087,432.12392 v 9.35113 h 5.668945 v -9.35113 z"
         style="fill:#0098b2;fill-opacity:0.93333333;stroke:none;stroke-width:1.59801757px;stroke-linecap:butt;stroke-linejoin:miter;stroke-opacity:1" />
      <path
         inkscape:connector-curvature="0"
         id="path1170-5-2-7"
         d="m 56.408203,442.64601 v 9.35113 h 5.668945 v -9.35113 z"
         style="fill:#0098b2;fill-opacity:0.93333333;stroke:none;stroke-width:1.59801769px;stroke-linecap:butt;stroke-linejoin:miter;stroke-opacity:1" />
      <path
         inkscape:connector-curvature="0"
         id="path1170-7-3-2-4"
         d="m 62.737722,442.68107 v 9.35113 h 5.668945 v -9.35113 z"
         style="fill:#0098b2;fill-opacity:0.93333333;stroke:none;stroke-width:1.59801757px;stroke-linecap:butt;stroke-linejoin:miter;stroke-opacity:1" />
    </g>
    <path
       style="fill:#ffffff;fill-opacity:1;stroke:none;stroke-width:1.5;stroke-linecap:butt;stroke-linejoin:miter;stroke-miterlimit:4;stroke-dasharray:none;stroke-opacity:1"
       d="m -45.492965,135.67235 c 0,0 2.663105,-4.03481 5.970683,-3.93165 3.307614,0.10297 6.007783,3.72409 6.007783,3.72409 l 0.25211,45.34749 c 0,0 -3.530478,-2.52182 -5.989174,-2.45879 -2.458736,0.063 -6.241442,2.96308 -6.241442,2.96308 z"
       id="path1347-5"
       inkscape:connector-curvature="0"
       sodipodi:nodetypes="czcczcc"
       inkscape:export-xdpi="250"
       inkscape:export-ydpi="250" />
    <path
       style="fill:#ffffff;fill-opacity:1;stroke:#ffffff;stroke-width:1;stroke-linecap:butt;stroke-linejoin:miter;stroke-miterlimit:4;stroke-dasharray:none;stroke-opacity:1"
       d="m -37.864644,181.28509 c 0,4.52353 0.323821,5.71035 0.409835,6.46205 0.12606,1.10329 2.626719,2.03976 3.435895,1.48152 0.959008,-0.6616 1.765276,-1.95438 0.252113,-4.09795 -0.662022,-1.00863 -2.048981,-2.23798 -2.048981,-2.23798 z"
       id="path1349-1"
       inkscape:connector-curvature="0"
       sodipodi:nodetypes="cssccc"
       inkscape:export-xdpi="250"
       inkscape:export-ydpi="250" />
    <path
       style="fill:#ffffff;fill-opacity:1;stroke:none;stroke-width:1.5;stroke-linecap:butt;stroke-linejoin:miter;stroke-miterlimit:4;stroke-dasharray:none;stroke-opacity:1"
       d="m -41.332019,181.69482 c 0,0 -2.624534,1.16013 -3.404383,2.71093 -0.779851,1.55077 -0.82446,3.76925 -0.504375,5.48487 0.320045,1.71561 1.819058,4.03467 4.980501,4.79141 3.161479,0.75679 60.333522,7e-5 60.333522,7e-5 l -0.126064,-50.30941 -49.679024,-0.25211 v 6.17828 h 44.887685 v 38.33104 h -45.770221 c 0,0 -1.008713,4.41318 -5.295791,3.90881 -4.160909,-0.44129 -4.728353,-4.35011 -4.728353,-4.35011 z"
       id="path1351-3"
       inkscape:connector-curvature="0"
       sodipodi:nodetypes="czzzcccccccccc"
       inkscape:export-xdpi="250"
       inkscape:export-ydpi="250" />
    <path
       style="fill:#ffffff;fill-opacity:1;stroke:none;stroke-width:1;stroke-linecap:butt;stroke-linejoin:miter;stroke-miterlimit:4;stroke-dasharray:none;stroke-opacity:1"
       d="m -29.73191,153.57698 h 22.6960667 v 9.83499 h -2.900045 v 3.53055 H 0.15120566 v -2.77407 H -3.2532153 V 153.57698 H 12.507954 v 10.46545 H 5.9513377 v 2.77394 h 6.6826343 v 6.05225 H 6.3295807 v 3.1522 h 6.4305233 v 9.33056 H -4.2618913 v -8.82617 h 3.40442296 v -3.78269 H -7.7923323 v 12.86113 H -12.583783 V 173.2469 h -6.178375 v 2.6479 h 3.782666 v 9.58271 h -15.130661 v -9.07841 h 3.782703 v -2.77395 h -3.40446 v -6.17838 h 11.726354 v -3.40434 H -29.73191 Z"
       id="path1353-3"
       inkscape:connector-curvature="0"
       inkscape:export-xdpi="250"
       inkscape:export-ydpi="250" />
  </g>
</svg>
