<?xml version="1.0" encoding="UTF-8" standalone="no"?>
<!-- Created with Inkscape (http://www.inkscape.org/) -->

<svg
   xmlns:dc="http://purl.org/dc/elements/1.1/"
   xmlns:cc="http://creativecommons.org/ns#"
   xmlns:rdf="http://www.w3.org/1999/02/22-rdf-syntax-ns#"
   xmlns:svg="http://www.w3.org/2000/svg"
   xmlns="http://www.w3.org/2000/svg"
   xmlns:sodipodi="http://sodipodi.sourceforge.net/DTD/sodipodi-0.dtd"
   xmlns:inkscape="http://www.inkscape.org/namespaces/inkscape"
   width="111.83178mm"
   height="102.88416mm"
   viewBox="0 0 111.83178 102.88416"
   version="1.1"
   id="svg7434"
   inkscape:version="0.92.3 (2405546, 2018-03-11)"
   sodipodi:docname="Reduce_Eliminate.svg">
  <defs
     id="defs7428" />
  <sodipodi:namedview
     id="base"
     pagecolor="#ffffff"
     bordercolor="#666666"
     borderopacity="1.0"
     inkscape:pageopacity="0.0"
     inkscape:pageshadow="2"
     inkscape:zoom="1.4"
     inkscape:cx="194.5535"
     inkscape:cy="182.77963"
     inkscape:document-units="mm"
     inkscape:current-layer="layer1"
     showgrid="false"
     inkscape:window-width="1920"
     inkscape:window-height="1001"
     inkscape:window-x="-9"
     inkscape:window-y="-9"
     inkscape:window-maximized="1" />
  <metadata
     id="metadata7431">
    <rdf:RDF>
      <cc:Work
         rdf:about="">
        <dc:format>image/svg+xml</dc:format>
        <dc:type
           rdf:resource="http://purl.org/dc/dcmitype/StillImage" />
        <dc:title></dc:title>
      </cc:Work>
    </rdf:RDF>
  </metadata>
  <g
     inkscape:label="Layer 1"
     inkscape:groupmode="layer"
     id="layer1"
     transform="translate(-44.625777,-100.98938)">
    <rect
       style="opacity:1;fill:#0069c1;fill-opacity:1;fill-rule:nonzero;stroke:#0069c1;stroke-width:0.78210294;stroke-linecap:round;stroke-linejoin:round;stroke-miterlimit:4;stroke-dasharray:none;stroke-dashoffset:0;stroke-opacity:1;paint-order:normal"
       id="rect12130-3-4"
       width="3.4052768"
       height="86.167091"
       x="68.43084"
       y="105.51742"
       inkscape:export-filename="C:\NoFloodFL\Website\MyFloodScore_Logos\LogoUpdate_05022019\MFS_Website_05052019\reduce_eliminate.png"
       inkscape:export-xdpi="400"
       inkscape:export-ydpi="400" />
    <rect
       style="opacity:1;fill:#0069c1;fill-opacity:1;fill-rule:nonzero;stroke:#0069c1;stroke-width:0.66433877;stroke-linecap:round;stroke-linejoin:round;stroke-miterlimit:4;stroke-dasharray:none;stroke-dashoffset:0;stroke-opacity:1;paint-order:normal"
       id="rect12130-9"
       width="3.4603372"
       height="61.182457"
       x="152.60251"
       y="130.34821"
       inkscape:export-filename="C:\NoFloodFL\Website\MyFloodScore_Logos\LogoUpdate_05022019\MFS_Website_05052019\reduce_eliminate.png"
       inkscape:export-xdpi="400"
       inkscape:export-ydpi="400" />
    <path
       style="fill:#0069c1;fill-opacity:1;stroke:none;stroke-width:0.25368175px;stroke-linecap:butt;stroke-linejoin:miter;stroke-opacity:1"
       d="m 153.64355,195.1657 c 2.18172,-0.56269 2.89889,-0.30324 2.80616,-3.49615 -0.0225,-0.77231 -6.56897,0.16386 -18.03889,-0.2646 -10.70706,-0.0922 -51.444825,-0.0301 -51.444825,-0.0301 l 0.153189,4.33957 c 0,0 22.578896,0.006 33.054586,0.006 10.47571,0 20.13838,-0.0249 24.96924,-0.0373 4.73743,-0.0161 6.319,0.0449 8.50071,-0.51769 z"
       id="path12170-1"
       inkscape:connector-curvature="0"
       sodipodi:nodetypes="zscccscz"
       inkscape:export-filename="C:\NoFloodFL\Website\MyFloodScore_Logos\LogoUpdate_05022019\MFS_Website_05052019\reduce_eliminate.png"
       inkscape:export-xdpi="400"
       inkscape:export-ydpi="400" />
    <path
       style="fill:#0069c1;fill-opacity:1;stroke:none;stroke-width:0.13261056px;stroke-linecap:butt;stroke-linejoin:miter;stroke-opacity:1"
       d="m 68.83753,195.16948 c -0.600429,-0.55872 -0.797917,-0.30065 -0.772284,-3.47151 0.0064,-0.76686 1.807805,0.16272 4.964364,-0.26275 2.946584,-0.0916 14.157672,-0.0298 14.157672,-0.0298 l -0.04216,4.30901 c 0,0 -6.21377,0.006 -9.09668,0.006 -2.882927,-2e-5 -5.554978,-0.0232 -6.871565,-0.037 -1.316603,-0.0145 -1.869773,-0.23361 -2.339412,-0.51413 -0.469576,-0.28051 -4.9e-5,-2e-5 -4.9e-5,-2e-5 z"
       id="path12170-3-0"
       inkscape:connector-curvature="0"
       sodipodi:nodetypes="cscccsszc"
       inkscape:export-filename="C:\NoFloodFL\Website\MyFloodScore_Logos\LogoUpdate_05022019\MFS_Website_05052019\reduce_eliminate.png"
       inkscape:export-xdpi="400"
       inkscape:export-ydpi="400" />
    <path
       style="fill:#0069c1;fill-opacity:1;stroke:none;stroke-width:0.25595587px;stroke-linecap:butt;stroke-linejoin:miter;stroke-opacity:1"
       d="m 70.563978,101.68 c -1.966353,0.63556 -2.612723,0.34252 -2.529193,3.94889 0.02027,0.87229 5.920652,-0.18509 16.258468,0.29885 9.650236,0.10427 46.367147,0.034 46.367147,0.034 l -0.13806,-4.90151 c 0,0 -20.35035,-0.008 -29.79202,-0.008 -9.441746,0 -18.150708,0.028 -22.504762,0.0422 -4.269833,0.0175 -5.695326,-0.0507 -7.661678,0.58474 z"
       id="path12170-7-7"
       inkscape:connector-curvature="0"
       sodipodi:nodetypes="zscccscz"
       inkscape:export-filename="C:\NoFloodFL\Website\MyFloodScore_Logos\LogoUpdate_05022019\MFS_Website_05052019\reduce_eliminate.png"
       inkscape:export-xdpi="400"
       inkscape:export-ydpi="400" />
    <path
       style="opacity:1;fill:#2f2e91;fill-opacity:1;fill-rule:nonzero;stroke:none;stroke-width:0.52377081;stroke-linecap:square;stroke-linejoin:round;stroke-miterlimit:4;stroke-dasharray:none;stroke-dashoffset:0;stroke-opacity:1;paint-order:fill markers stroke"
       mask="none"
       clip-path="none"
       inkscape:transform-center-x="-2.7233903"
       inkscape:transform-center-y="-3.1744559"
       d="m 132.76506,100.98949 23.61522,27.45743 c 0,0 -6.03703,0.20231 -11.97966,0.11859 -5.86682,-0.0825 -8.69934,0.8027 -10.45504,-1.70299 -1.77056,-2.52678 -1.13574,-5.33012 -1.18405,-10.17299 -0.0483,-4.84286 0.003,-15.70015 0.003,-15.70015 z"
       id="path12287-3-4"
       inkscape:connector-curvature="0"
       sodipodi:nodetypes="ccsssc"
       inkscape:export-filename="C:\NoFloodFL\Website\MyFloodScore_Logos\LogoUpdate_05022019\MFS_Website_05052019\reduce_eliminate.png"
       inkscape:export-xdpi="400"
       inkscape:export-ydpi="400" />
    <path
       style="opacity:1;fill:#ffffff;fill-opacity:1;fill-rule:nonzero;stroke:#0069c1;stroke-width:3.14133716;stroke-linecap:round;stroke-linejoin:bevel;stroke-miterlimit:4;stroke-dasharray:none;stroke-dashoffset:0;stroke-opacity:1;paint-order:normal"
       d="m 100.52012,110.84911 -54.347536,9.58292 14.440235,81.8947 76.140271,-13.4256 -9.96325,-56.5045 c -0.63602,0.13098 -0.89391,0.18867 -2.23102,0.44911 -2.21092,0.43053 -5.15504,0.97941 -8.08845,1.45416 -2.89604,0.46865 -5.00329,1.04429 -6.65678,1.23193 -0.82672,0.094 -1.53967,0.0912 -2.18162,-0.0705 -0.3209,-0.0808 -0.62413,-0.20195 -0.91462,-0.36983 -0.2905,-0.16786 -0.56833,-0.38305 -0.83881,-0.65339 -0.54562,-0.54523 -0.94644,-1.13311 -1.25426,-1.78334 -0.30775,-0.6503 -0.52276,-1.3624 -0.69742,-2.15517 -0.34934,-1.58544 -0.53667,-3.49394 -0.98092,-5.87439 -0.79159,-4.24196 -2.09858,-11.87377 -2.42584,-13.77618 z"
       id="path12567"
       inkscape:connector-curvature="0"
       inkscape:export-filename="C:\NoFloodFL\Website\MyFloodScore_Logos\LogoUpdate_05022019\MFS_Website_05052019\reduce_eliminate.png"
       inkscape:export-xdpi="400"
       inkscape:export-ydpi="400" />
    <flowRoot
       xml:space="preserve"
       id="flowRoot9929-6-7"
       style="font-style:italic;font-variant:normal;font-weight:bold;font-stretch:normal;font-size:39.99914169px;line-height:1.25;font-family:sans-serif;-inkscape-font-specification:'sans-serif, Bold Italic';font-variant-ligatures:normal;font-variant-caps:normal;font-variant-numeric:normal;font-feature-settings:normal;text-align:start;letter-spacing:0px;word-spacing:0px;writing-mode:lr-tb;text-anchor:start;fill:#2f2e91;fill-opacity:1;stroke:none"
       transform="matrix(0.22040622,-0.03886355,0.03886355,0.22040622,-41.374835,-255.9583)"
       inkscape:export-filename="C:\NoFloodFL\Website\MyFloodScore_Logos\LogoUpdate_05022019\MFS_Website_05052019\reduce_eliminate.png"
       inkscape:export-xdpi="400"
       inkscape:export-ydpi="400"><flowRegion
         id="flowRegion9931-44-2"
         style="font-style:italic;font-variant:normal;font-weight:bold;font-stretch:normal;font-size:39.99914169px;font-family:sans-serif;-inkscape-font-specification:'sans-serif, Bold Italic';font-variant-ligatures:normal;font-variant-caps:normal;font-variant-numeric:normal;font-feature-settings:normal;text-align:start;writing-mode:lr-tb;text-anchor:start;fill:#2f2e91;fill-opacity:1"><rect
           id="rect9933-1-4"
           width="254.19641"
           height="127.93991"
           x="112.78913"
           y="1762.2192"
           style="font-style:italic;font-variant:normal;font-weight:bold;font-stretch:normal;font-size:39.99914169px;font-family:sans-serif;-inkscape-font-specification:'sans-serif, Bold Italic';font-variant-ligatures:normal;font-variant-caps:normal;font-variant-numeric:normal;font-feature-settings:normal;text-align:start;writing-mode:lr-tb;text-anchor:start;fill:#2f2e91;fill-opacity:1" /></flowRegion><flowPara
         id="flowPara9935-8-5">premium</flowPara></flowRoot>    <rect
       style="opacity:1;fill:#0069c1;fill-opacity:1;fill-rule:nonzero;stroke:#ffffff;stroke-width:0.74098819;stroke-linecap:square;stroke-linejoin:round;stroke-miterlimit:4;stroke-dasharray:none;stroke-dashoffset:0;stroke-opacity:1;paint-order:fill markers stroke"
       id="rect12305-3"
       width="47.764015"
       height="3.2629411"
       x="28.976282"
       y="151.52292"
       transform="matrix(0.98280307,-0.18465676,0.16325733,0.98658352,0,0)"
       inkscape:export-filename="C:\NoFloodFL\Website\MyFloodScore_Logos\LogoUpdate_05022019\MFS_Website_05052019\reduce_eliminate.png"
       inkscape:export-xdpi="400"
       inkscape:export-ydpi="400" />
    <rect
       style="opacity:1;fill:#0069c1;fill-opacity:1;fill-rule:nonzero;stroke:#ffffff;stroke-width:0.861624;stroke-linecap:square;stroke-linejoin:round;stroke-miterlimit:4;stroke-dasharray:none;stroke-dashoffset:0;stroke-opacity:1;paint-order:fill markers stroke"
       id="rect12305-5-9"
       width="65.945442"
       height="3.1954968"
       x="27.512072"
       y="164.17453"
       transform="rotate(-10)"
       inkscape:export-filename="C:\NoFloodFL\Website\MyFloodScore_Logos\LogoUpdate_05022019\MFS_Website_05052019\reduce_eliminate.png"
       inkscape:export-xdpi="400"
       inkscape:export-ydpi="400" />
    <rect
       style="opacity:1;fill:#0069c1;fill-opacity:1;fill-rule:nonzero;stroke:#ffffff;stroke-width:0.861624;stroke-linecap:square;stroke-linejoin:round;stroke-miterlimit:4;stroke-dasharray:none;stroke-dashoffset:0;stroke-opacity:1;paint-order:fill markers stroke"
       id="rect12305-5-6-2"
       width="65.945442"
       height="3.1954968"
       x="27.739925"
       y="176.16156"
       transform="rotate(-10)"
       inkscape:export-filename="C:\NoFloodFL\Website\MyFloodScore_Logos\LogoUpdate_05022019\MFS_Website_05052019\reduce_eliminate.png"
       inkscape:export-xdpi="400"
       inkscape:export-ydpi="400" />
    <rect
       style="opacity:1;fill:#0069c1;fill-opacity:1;fill-rule:nonzero;stroke:#ffffff;stroke-width:0.861624;stroke-linecap:square;stroke-linejoin:round;stroke-miterlimit:4;stroke-dasharray:none;stroke-dashoffset:0;stroke-opacity:1;paint-order:fill markers stroke"
       id="rect12305-5-6-2-5"
       width="65.945442"
       height="3.1954968"
       x="28.007311"
       y="189.05273"
       transform="rotate(-10)"
       inkscape:export-filename="C:\NoFloodFL\Website\MyFloodScore_Logos\LogoUpdate_05022019\MFS_Website_05052019\reduce_eliminate.png"
       inkscape:export-xdpi="400"
       inkscape:export-ydpi="400" />
    <rect
       style="opacity:1;fill:#0069c1;fill-opacity:1;fill-rule:nonzero;stroke:#ffffff;stroke-width:0.861624;stroke-linecap:square;stroke-linejoin:round;stroke-miterlimit:4;stroke-dasharray:none;stroke-dashoffset:0;stroke-opacity:1;paint-order:fill markers stroke"
       id="rect12305-5-6-2-1"
       width="65.945442"
       height="3.1954968"
       x="27.796005"
       y="200.46561"
       transform="rotate(-10)"
       inkscape:export-filename="C:\NoFloodFL\Website\MyFloodScore_Logos\LogoUpdate_05022019\MFS_Website_05052019\reduce_eliminate.png"
       inkscape:export-xdpi="400"
       inkscape:export-ydpi="400" />
    <path
       style="opacity:1;fill:#ea0505;fill-opacity:1;stroke:#000000;stroke-width:0.44977802px;stroke-linecap:butt;stroke-linejoin:miter;stroke-opacity:1"
       d="m 65.550455,147.90973 c 1.276616,0.69117 6.456989,3.59265 9.24538,5.37722 2.788391,1.78457 6.58049,5.73982 7.237014,5.44585 1.630769,-0.73021 2.866288,-5.52177 2.866288,-5.52177 0.385756,0.59142 1.445237,2.07582 2.672616,3.90503 1.183367,1.7636 2.369084,3.53689 3.007761,3.86314 0.607686,0.31043 2.130642,-1.82283 3.484096,-3.20074 1.530939,-1.5586 2.023362,-2.99451 2.791255,-2.33045 3.144716,2.08531 10.519875,14.97997 12.237885,18.30376 -0.95896,1.33278 -1.96841,1.22125 -1.87843,1.46201 1.03663,1.16391 5.18269,3.85039 7.54731,5.50382 0.28158,-2.38717 -0.14466,-7.51061 -0.46113,-9.08318 -0.21796,-1.08309 -1.2254,0.48328 -2.52041,0.59912 -1.27827,-2.14289 -4.14881,-7.5611 -6.69848,-11.08021 -2.54967,-3.51912 -6.182976,-8.9556 -8.508488,-9.75334 -0.192336,-0.17299 -1.425025,1.02157 -2.598511,2.41693 -1.173505,1.39535 -2.287841,2.99148 -2.912729,2.68468 -1.210466,-1.34414 -1.390335,-1.95749 -3.107965,-4.13381 -1.412119,-1.78922 -2.831482,-3.82424 -3.634484,-4.0084 -0.825224,0.0338 -0.980022,2.85296 -3.225831,6.0825 -1.725257,-1.28978 -3.50648,-2.54065 -6.027337,-4.02417 -2.520873,-1.48352 -7.271191,-4.40592 -8.67657,-4.65158 -0.435253,0.58245 -0.57787,1.31045 -0.83924,2.14359 z"
       id="path12641"
       inkscape:connector-curvature="0"
       sodipodi:nodetypes="cssssssccccscscscsccccc"
       inkscape:export-filename="C:\NoFloodFL\Website\MyFloodScore_Logos\LogoUpdate_05022019\MFS_Website_05052019\reduce_eliminate.png"
       inkscape:export-xdpi="400"
       inkscape:export-ydpi="400" />
  </g>
</svg>
