<svg id="Capa_1" data-name="Capa 1" xmlns="http://www.w3.org/2000/svg" viewBox="0 0 512 512"><defs><style>.cls-1{fill:#fff;}</style></defs><title>twitter_white</title><path class="cls-1" d="M512,97.25a218.84,218.84,0,0,1-60.48,16.58,104.38,104.38,0,0,0,46.18-58,209.77,209.77,0,0,1-66.56,25.41A105,105,0,0,0,249.57,153,108.08,108.08,0,0,0,252,176.93C164.74,172.67,87.52,130.85,35.65,67.14A105,105,0,0,0,67.9,207.42,103.66,103.66,0,0,1,20.48,194.5v1.15a105.45,105.45,0,0,0,84.1,103.14,104.76,104.76,0,0,1-27.52,3.46,92.81,92.81,0,0,1-19.87-1.79c13.6,41.57,52.19,72.13,98.08,73.12A210.91,210.91,0,0,1,25.12,418.34,196.6,196.6,0,0,1,0,416.9,295.5,295.5,0,0,0,161,464c193.15,0,298.75-160,298.75-298.69,0-4.64-.16-9.12-.38-13.57A209.4,209.4,0,0,0,512,97.25Z"/></svg>